0
SECTION
2
ENTITIES
 0
LWPOLYLINE
8
lineA
10
0
20
0
10
34.026032334081606
20
0
10
6.4983939246581315
20
-20
10
40.52442625873974
20
-20
10
12.996787849316263
20
-40
10
47.02282018339787
20
-40
10
19.495181773974394
20
-60
10
53.521214108056
20
-60
10
25.993575698632526
20
-80
10
60.01960803271413
20
-80
10
32.49196962329066
20
-100
10
66.51800195737226
20
-100
10
38.99036354794879
20
-120
10
73.0163958820304
20
-120
10
45.48875747260692
20
-140
10
79.51478980668853
20
-140
10
51.98715139726505
20
-160
10
86.01318373134666
20
-160
10
58.48554532192318
20
-180
10
92.51157765600479
20
-180
10
64.98393924658131
20
-200
10
99.00997158066292
20
-200
10
126.5376099900864
20
-180
10
92.51157765600479
20
-180
10
120.03921606542826
20
-160
10
86.01318373134666
20
-160
10
113.54082214077013
20
-140
10
79.51478980668853
20
-140
10
107.042428216112
20
-120
10
73.0163958820304
20
-120
10
100.54403429145387
20
-100
10
66.51800195737226
20
-100
10
94.04564036679574
20
-80
10
60.01960803271413
20
-80
10
87.5472464421376
20
-60
10
53.521214108056
20
-60
10
81.04885251747947
20
-40
10
47.02282018339787
20
-40
10
74.55045859282134
20
-20
10
40.52442625873974
20
-20
10
68.05206466816321
20
0
10
102.07809700224482
20
0
10
74.55045859282134
20
-20
10
108.57649092690295
20
-20
10
81.04885251747947
20
-40
10
115.07488485156108
20
-40
10
87.5472464421376
20
-60
10
121.57327877621921
20
-60
10
94.04564036679574
20
-80
10
128.07167270087734
20
-80
10
100.54403429145387
20
-100
10
134.57006662553547
20
-100
10
107.042428216112
20
-120
10
141.0684605501936
20
-120
10
113.54082214077013
20
-140
10
147.56685447485174
20
-140
10
120.03921606542826
20
-160
10
154.06524839950987
20
-160
10
126.5376099900864
20
-180
10
160.563642324168
20
-180
10
133.03600391474453
20
-200
10
167.06203624882613
20
-200
10
194.5896746582496
20
-180
10
160.563642324168
20
-180
10
188.09128073359147
20
-160
10
154.06524839950987
20
-160
10
181.59288680893334
20
-140
10
147.56685447485174
20
-140
10
175.0944928842752
20
-120
10
141.0684605501936
20
-120
10
168.59609895961708
20
-100
10
134.57006662553547
20
-100
10
162.09770503495895
20
-80
10
128.07167270087734
20
-80
10
155.59931111030082
20
-60
10
121.57327877621921
20
-60
10
149.1009171856427
20
-40
10
115.07488485156108
20
-40
10
142.60252326098455
20
-20
10
108.57649092690295
20
-20
10
136.10412933632642
20
0
10
170.13016167040803
20
0
10
142.60252326098455
20
-20
10
176.62855559506616
20
-20
10
149.1009171856427
20
-40
10
183.1269495197243
20
-40
10
155.59931111030082
20
-60
10
189.62534344438242
20
-60
10
162.09770503495895
20
-80
10
196.12373736904055
20
-80
10
168.59609895961708
20
-100
10
202.6221312936987
20
-100
10
175.0944928842752
20
-120
10
209.12052521835682
20
-120
10
181.59288680893334
20
-140
10
215.61891914301495
20
-140
10
188.09128073359147
20
-160
10
222.11731306767308
20
-160
10
194.5896746582496
20
-180
10
228.6157069923312
20
-180
10
201.08806858290774
20
-200
10
235.11410091698934
20
-200
10
262.6417393264128
20
-180
10
228.61570699233118
20
-180
10
256.1433454017547
20
-160
10
222.11731306767308
20
-160
10
249.64495147709655
20
-140
10
215.61891914301495
20
-140
10
243.14655755243842
20
-120
10
209.12052521835682
20
-120
10
236.6481636277803
20
-100
10
202.6221312936987
20
-100
10
230.14976970312216
20
-80
10
196.12373736904055
20
-80
10
223.65137577846403
20
-60
10
189.62534344438242
20
-60
10
217.1529818538059
20
-40
10
183.1269495197243
20
-40
10
210.65458792914777
20
-20
10
176.62855559506616
20
-20
10
204.15619400448963
20
0
10
238.18222633857124
20
0
10
210.65458792914777
20
-20
10
244.68062026322937
20
-20
10
217.1529818538059
20
-40
10
251.1790141878875
20
-40
10
223.65137577846403
20
-60
10
257.67740811254566
20
-60
10
230.1497697031222
20
-80
10
264.17580203720377
20
-80
10
236.6481636277803
20
-100
10
270.67419596186187
20
-100
10
243.1465575524384
20
-120
10
277.17258988652
20
-120
10
249.6449514770965
20
-140
10
283.6709838111781
20
-140
10
256.1433454017546
20
-160
10
290.1693777358362
20
-160
10
262.6417393264127
20
-180
10
296.6677716604943
20
-180
10
269.1401332510708
20
-200
10
303.1661655851524
20
-200
10
330.6938039945759
20
-180
10
296.6677716604943
20
-180
10
324.1954100699178
20
-160
10
290.1693777358362
20
-160
10
317.6970161452597
20
-140
10
283.6709838111781
20
-140
10
311.1986222206016
20
-120
10
277.17258988652
20
-120
10
304.7002282959435
20
-100
10
270.67419596186187
20
-100
10
298.2018343712854
20
-80
10
264.17580203720377
20
-80
10
291.70344044662727
20
-60
10
257.67740811254566
20
-60
10
285.20504652196917
20
-40
10
251.17901418788756
20
-40
10
278.70665259731106
20
-20
10
244.68062026322946
20
-20
10
272.20825867265296
20
0
10
306.23429100673457
20
0
10
278.70665259731106
20
-20
10
312.73268493139267
20
-20
10
285.20504652196917
20
-40
10
319.2310788560508
20
-40
10
291.70344044662727
20
-60
10
325.7294727807089
20
-60
10
298.2018343712854
20
-80
10
332.227866705367
20
-80
10
304.7002282959435
20
-100
10
338.7262606300251
20
-100
10
311.1986222206016
20
-120
10
345.2246545546832
20
-120
10
317.6970161452597
20
-140
10
351.7230484793413
20
-140
10
324.1954100699178
20
-160
10
358.2214424039994
20
-160
10
330.6938039945759
20
-180
10
364.7198363286575
20
-180
10
337.192197919234
20
-200
10
371.2182302533156
20
-200
10
398.7458686627391
20
-180
10
364.7198363286575
20
-180
10
392.247474738081
20
-160
10
358.2214424039994
20
-160
10
385.7490808134229
20
-140
10
351.7230484793413
20
-140
10
379.2506868887648
20
-120
10
345.2246545546832
20
-120
10
372.7522929641067
20
-100
10
338.7262606300251
20
-100
10
366.2538990394486
20
-80
10
332.227866705367
20
-80
10
359.7555051147905
20
-60
10
325.7294727807089
20
-60
10
353.2571111901324
20
-40
10
319.2310788560508
20
-40
10
346.7587172654743
20
-20
10
312.73268493139267
20
-20
10
340.26032334081617
20
0
10
374.2863556748978
20
0
10
346.7587172654743
20
-20
10
380.7847495995559
20
-20
10
353.2571111901324
20
-40
10
387.283143524214
20
-40
10
359.7555051147905
20
-60
10
393.7815374488721
20
-60
10
366.2538990394486
20
-80
10
400.2799313735302
20
-80
10
372.7522929641067
20
-100
10
406.7783252981883
20
-100
10
379.2506868887648
20
-120
10
413.2767192228464
20
-120
10
385.7490808134229
20
-140
10
419.7751131475045
20
-140
10
392.247474738081
20
-160
10
426.2735070721626
20
-160
10
398.7458686627391
20
-180
10
432.7719009968207
20
-180
10
405.2442625873972
20
-200
10
439.2702949214788
20
-200
10
466.7979333309023
20
-180
10
432.7719009968207
20
-180
10
460.2995394062442
20
-160
10
426.2735070721626
20
-160
10
453.8011454815861
20
-140
10
419.7751131475045
20
-140
10
447.302751556928
20
-120
10
413.2767192228464
20
-120
10
440.8043576322699
20
-100
10
406.7783252981883
20
-100
10
434.3059637076118
20
-80
10
400.2799313735302
20
-80
10
427.8075697829537
20
-60
10
393.7815374488721
20
-60
10
421.3091758582956
20
-40
10
387.283143524214
20
-40
10
414.8107819336375
20
-20
10
380.7847495995559
20
-20
10
408.3123880089794
20
0
10
442.338420343061
20
0
10
414.8107819336375
20
-20
10
448.8368142677191
20
-20
10
421.3091758582956
20
-40
10
455.3352081923772
20
-40
10
427.8075697829537
20
-60
10
461.8336021170353
20
-60
10
434.3059637076118
20
-80
10
468.3319960416934
20
-80
10
440.8043576322699
20
-100
10
474.8303899663515
20
-100
10
447.302751556928
20
-120
10
481.3287838910096
20
-120
10
453.8011454815861
20
-140
10
487.8271778156677
20
-140
10
460.2995394062442
20
-160
10
494.3255717403258
20
-160
10
466.7979333309023
20
-180
10
500.8239656649839
20
-180
10
473.2963272555604
20
-200
10
507.322359589642
20
-200
10
534.8499979990655
20
-180
10
500.8239656649839
20
-180
10
528.3516040744074
20
-160
10
494.3255717403258
20
-160
10
521.8532101497493
20
-140
10
487.8271778156677
20
-140
10
515.3548162250912
20
-120
10
481.3287838910096
20
-120
10
508.8564223004331
20
-100
10
474.8303899663515
20
-100
10
502.358028375775
20
-80
10
468.3319960416934
20
-80
10
495.8596344511169
20
-60
10
461.8336021170353
20
-60
10
489.3612405264588
20
-40
10
455.3352081923772
20
-40
10
482.8628466018007
20
-20
10
448.8368142677191
20
-20
10
476.3644526771426
20
0
10
510.3904850112242
20
0
10
482.8628466018007
20
-20
10
516.8888789358823
20
-20
10
489.3612405264588
20
-40
10
523.3872728605404
20
-40
10
495.8596344511169
20
-60
10
529.8856667851985
20
-60
10
502.358028375775
20
-80
10
536.3840607098566
20
-80
10
508.8564223004331
20
-100
10
542.8824546345147
20
-100
10
515.3548162250912
20
-120
10
549.3808485591728
20
-120
10
521.8532101497493
20
-140
10
555.8792424838309
20
-140
10
528.3516040744074
20
-160
10
562.377636408489
20
-160
10
534.8499979990655
20
-180
10
568.8760303331471
20
-180
10
541.3483919237236
20
-200
10
575.3744242578052
20
-200
10
602.9020626672287
20
-180
10
568.8760303331471
20
-180
10
596.4036687425706
20
-160
10
562.377636408489
20
-160
10
589.9052748179125
20
-140
10
555.8792424838309
20
-140
10
583.4068808932544
20
-120
10
549.3808485591728
20
-120
10
576.9084869685963
20
-100
10
542.8824546345147
20
-100
10
570.4100930439382
20
-80
10
536.3840607098566
20
-80
10
563.9116991192801
20
-60
10
529.8856667851985
20
-60
10
557.413305194622
20
-40
10
523.3872728605404
20
-40
10
550.9149112699639
20
-20
10
516.8888789358823
20
-20
10
544.4165173453058
20
0
10
578.4425496793874
20
0
10
550.9149112699639
20
-20
10
584.9409436040455
20
-20
10
557.413305194622
20
-40
10
591.4393375287036
20
-40
10
563.9116991192801
20
-60
10
597.9377314533617
20
-60
10
570.4100930439382
20
-80
10
604.4361253780198
20
-80
10
576.9084869685963
20
-100
10
610.9345193026779
20
-100
10
583.4068808932544
20
-120
10
617.432913227336
20
-120
10
589.9052748179125
20
-140
10
623.9313071519941
20
-140
10
596.4036687425706
20
-160
10
630.4297010766522
20
-160
10
602.9020626672287
20
-180
10
636.9280950013103
20
-180
10
609.4004565918868
20
-200
10
643.4264889259684
20
-200
10
670.954127335392
20
-180
10
636.9280950013103
20
-180
10
664.4557334107338
20
-160
10
630.4297010766522
20
-160
10
657.9573394860757
20
-140
10
623.9313071519941
20
-140
10
651.4589455614176
20
-120
10
617.432913227336
20
-120
10
644.9605516367595
20
-100
10
610.9345193026779
20
-100
10
638.4621577121014
20
-80
10
604.4361253780198
20
-80
10
631.9637637874433
20
-60
10
597.9377314533617
20
-60
10
625.4653698627852
20
-40
10
591.4393375287036
20
-40
10
618.9669759381271
20
-20
10
584.9409436040455
20
-20
10
612.468582013469
20
0
10
646.4946143475506
20
0
10
618.9669759381271
20
-20
10
652.9930082722087
20
-20
10
625.4653698627852
20
-40
10
659.4914021968668
20
-40
10
631.9637637874433
20
-60
10
665.9897961215249
20
-60
10
638.4621577121014
20
-80
10
672.488190046183
20
-80
10
644.9605516367595
20
-100
10
678.9865839708411
20
-100
10
651.4589455614176
20
-120
10
685.4849778954992
20
-120
10
657.9573394860757
20
-140
10
691.9833718201573
20
-140
10
664.4557334107338
20
-160
10
698.4817657448154
20
-160
10
670.954127335392
20
-180
10
704.9801596694736
20
-180
10
677.45252126005
20
-200
10
711.4785535941317
20
-200
10
739.0061920035552
20
-180
10
704.9801596694736
20
-180
10
732.507798078897
20
-160
10
698.4817657448154
20
-160
10
726.009404154239
20
-140
10
691.9833718201573
20
-140
10
719.5110102295808
20
-120
10
685.4849778954992
20
-120
10
713.0126163049227
20
-100
10
678.9865839708411
20
-100
10
706.5142223802646
20
-80
10
672.488190046183
20
-80
10
700.0158284556065
20
-60
10
665.9897961215249
20
-60
10
693.5174345309484
20
-40
10
659.4914021968668
20
-40
10
687.0190406062903
20
-20
10
652.9930082722087
20
-20
10
680.5206466816322
20
0
10
714.5466790157138
20
0
10
687.0190406062903
20
-20
10
721.0450729403719
20
-20
10
693.5174345309484
20
-40
10
727.54346686503
20
-40
10
700.0158284556065
20
-60
10
734.0418607896881
20
-60
10
706.5142223802646
20
-80
10
740.5402547143462
20
-80
10
713.0126163049227
20
-100
10
747.0386486390044
20
-100
10
719.5110102295808
20
-120
10
753.5370425636625
20
-120
10
726.009404154239
20
-140
10
760.0354364883206
20
-140
10
732.507798078897
20
-160
10
766.5338304129787
20
-160
10
739.0061920035552
20
-180
10
773.0322243376368
20
-180
10
745.5045859282133
20
-200
10
779.5306182622949
20
-200
10
807.0582566717184
20
-180
10
773.0322243376368
20
-180
10
800.5598627470603
20
-160
10
766.5338304129787
20
-160
10
794.0614688224022
20
-140
10
760.0354364883206
20
-140
10
787.5630748977441
20
-120
10
753.5370425636625
20
-120
10
781.064680973086
20
-100
10
747.0386486390044
20
-100
10
774.5662870484279
20
-80
10
740.5402547143462
20
-80
10
768.0678931237697
20
-60
10
734.0418607896881
20
-60
10
761.5694991991116
20
-40
10
727.54346686503
20
-40
10
755.0711052744535
20
-20
10
721.0450729403719
20
-20
10
748.5727113497954
20
0
10
782.598743683877
20
0
10
755.0711052744535
20
-20
10
789.0971376085351
20
-20
10
761.5694991991116
20
-40
10
795.5955315331933
20
-40
10
768.0678931237697
20
-60
10
802.0939254578514
20
-60
10
774.5662870484279
20
-80
10
808.5923193825095
20
-80
10
781.064680973086
20
-100
10
815.0907133071676
20
-100
10
787.5630748977441
20
-120
10
821.5891072318257
20
-120
10
794.0614688224022
20
-140
10
828.0875011564838
20
-140
10
800.5598627470603
20
-160
10
834.5858950811419
20
-160
10
807.0582566717184
20
-180
10
841.0842890058
20
-180
10
813.5566505963765
20
-200
10
847.5826829304581
20
-200
10
875.1103213398816
20
-180
10
841.0842890058
20
-180
10
868.6119274152235
20
-160
10
834.5858950811419
20
-160
10
862.1135334905654
20
-140
10
828.0875011564838
20
-140
10
855.6151395659073
20
-120
10
821.5891072318257
20
-120
10
849.1167456412492
20
-100
10
815.0907133071676
20
-100
10
842.6183517165911
20
-80
10
808.5923193825095
20
-80
10
836.119957791933
20
-60
10
802.0939254578514
20
-60
10
829.6215638672749
20
-40
10
795.5955315331933
20
-40
10
823.1231699426168
20
-20
10
789.0971376085351
20
-20
10
816.6247760179587
20
0
10
850.6508083520403
20
0
10
823.1231699426168
20
-20
10
857.1492022766984
20
-20
10
829.6215638672749
20
-40
10
863.6475962013565
20
-40
10
836.119957791933
20
-60
10
870.1459901260146
20
-60
10
842.6183517165911
20
-80
10
876.6443840506727
20
-80
10
849.1167456412492
20
-100
10
883.1427779753308
20
-100
10
855.6151395659073
20
-120
10
889.6411718999889
20
-120
10
862.1135334905654
20
-140
10
896.139565824647
20
-140
10
868.6119274152235
20
-160
10
902.6379597493051
20
-160
10
875.1103213398816
20
-180
10
909.1363536739632
20
-180
10
881.6087152645397
20
-200
10
915.6347475986213
20
-200
10
943.1623860080448
20
-180
10
909.1363536739632
20
-180
10
936.6639920833867
20
-160
10
902.6379597493051
20
-160
10
930.1655981587286
20
-140
10
896.139565824647
20
-140
10
923.6672042340705
20
-120
10
889.6411718999889
20
-120
10
917.1688103094124
20
-100
10
883.1427779753308
20
-100
10
910.6704163847543
20
-80
10
876.6443840506727
20
-80
10
904.1720224600962
20
-60
10
870.1459901260146
20
-60
10
897.6736285354381
20
-40
10
863.6475962013565
20
-40
10
891.17523461078
20
-20
10
857.1492022766984
20
-20
10
884.6768406861219
20
0
10
918.7028730202035
20
0
10
891.17523461078
20
-20
10
925.2012669448616
20
-20
10
897.6736285354381
20
-40
10
931.6996608695197
20
-40
10
904.1720224600962
20
-60
10
938.1980547941778
20
-60
10
910.6704163847543
20
-80
10
944.6964487188359
20
-80
10
917.1688103094124
20
-100
10
951.194842643494
20
-100
10
923.6672042340705
20
-120
10
957.6932365681521
20
-120
10
930.1655981587286
20
-140
10
964.1916304928102
20
-140
10
936.6639920833867
20
-160
10
970.6900244174683
20
-160
10
943.1623860080448
20
-180
10
977.1884183421264
20
-180
10
949.6607799327029
20
-200
10
983.6868122667845
20
-200
10
1011.214450676208
20
-180
10
977.1884183421264
20
-180
10
1004.7160567515499
20
-160
10
970.6900244174683
20
-160
10
998.2176628268918
20
-140
10
964.1916304928102
20
-140
10
991.7192689022337
20
-120
10
957.6932365681521
20
-120
10
985.2208749775756
20
-100
10
951.194842643494
20
-100
10
978.7224810529175
20
-80
10
944.6964487188359
20
-80
10
972.2240871282594
20
-60
10
938.1980547941778
20
-60
10
965.7256932036013
20
-40
10
931.6996608695197
20
-40
10
959.2272992789432
20
-20
10
925.2012669448616
20
-20
10
952.7289053542851
20
0
10
986.7549376883667
20
0
10
959.2272992789432
20
-20
10
993.2533316130248
20
-20
10
965.7256932036013
20
-40
10
999.7517255376829
20
-40
10
972.2240871282594
20
-60
10
1006.250119462341
20
-60
10
978.7224810529175
20
-80
10
1012.7485133869991
20
-80
10
985.2208749775756
20
-100
10
1019.2469073116572
20
-100
10
991.7192689022337
20
-120
10
1025.7453012363153
20
-120
10
998.2176628268918
20
-140
10
1032.2436951609734
20
-140
10
1004.7160567515499
20
-160
10
1038.7420890856315
20
-160
10
1011.214450676208
20
-180
10
1045.2404830102896
20
-180
10
1017.7128446008661
20
-200
10
1051.7388769349477
20
-200
10
1079.266515344371
20
-180
10
1045.2404830102896
20
-180
10
1072.768121419713
20
-160
10
1038.7420890856315
20
-160
10
1066.269727495055
20
-140
10
1032.2436951609734
20
-140
10
1059.7713335703968
20
-120
10
1025.7453012363153
20
-120
10
1053.2729396457387
20
-100
10
1019.2469073116571
20
-100
10
1046.7745457210806
20
-80
10
1012.748513386999
20
-80
10
1040.2761517964225
20
-60
10
1006.2501194623409
20
-60
10
1033.7777578717644
20
-40
10
999.7517255376828
20
-40
10
1027.2793639471063
20
-20
10
993.2533316130247
20
-20
10
1020.7809700224482
20
0
10
1054.8070023565297
20
0
10
1027.2793639471063
20
-20
10
1061.3053962811878
20
-20
10
1033.7777578717644
20
-40
10
1067.8037902058459
20
-40
10
1040.2761517964225
20
-60
10
1074.302184130504
20
-60
10
1046.7745457210806
20
-80
10
1080.800578055162
20
-80
10
1053.2729396457387
20
-100
10
1087.2989719798202
20
-100
10
1059.7713335703968
20
-120
10
1093.7973659044783
20
-120
10
1066.269727495055
20
-140
10
1100.2957598291364
20
-140
10
1072.768121419713
20
-160
10
1106.7941537537945
20
-160
10
1079.266515344371
20
-180
10
1113.2925476784526
20
-180
10
1085.7649092690292
20
-200
10
1119.7909416031107
20
-200
10
1147.318580012534
20
-180
10
1113.2925476784526
20
-180
10
1140.820186087876
20
-160
10
1106.7941537537945
20
-160
10
1134.3217921632179
20
-140
10
1100.2957598291364
20
-140
10
1127.8233982385598
20
-120
10
1093.7973659044783
20
-120
10
1121.3250043139017
20
-100
10
1087.2989719798202
20
-100
10
1114.8266103892436
20
-80
10
1080.800578055162
20
-80
10
1108.3282164645855
20
-60
10
1074.302184130504
20
-60
10
1101.8298225399274
20
-40
10
1067.8037902058459
20
-40
10
1095.3314286152693
20
-20
10
1061.3053962811878
20
-20
10
1088.8330346906112
20
0
10
1122.8590670246926
20
0
10
1095.3314286152693
20
-20
10
1129.3574609493508
20
-20
10
1101.8298225399274
20
-40
10
1135.8558548740089
20
-40
10
1108.3282164645855
20
-60
10
1142.354248798667
20
-60
10
1114.8266103892436
20
-80
10
1148.852642723325
20
-80
10
1121.3250043139017
20
-100
10
1155.3510366479832
20
-100
10
1127.8233982385598
20
-120
10
1161.8494305726413
20
-120
10
1134.3217921632179
20
-140
10
1168.3478244972994
20
-140
10
1140.820186087876
20
-160
10
1174.8462184219575
20
-160
10
1147.318580012534
20
-180
10
1181.3446123466156
20
-180
10
1153.8169739371922
20
-200
10
1187.8430062712737
20
-200
10
1215.370644680697
20
-180
10
1181.3446123466156
20
-180
10
1208.872250756039
20
-160
10
1174.8462184219575
20
-160
10
1202.3738568313809
20
-140
10
1168.3478244972994
20
-140
10
1195.8754629067228
20
-120
10
1161.8494305726413
20
-120
10
1189.3770689820647
20
-100
10
1155.3510366479832
20
-100
10
1182.8786750574066
20
-80
10
1148.852642723325
20
-80
10
1176.3802811327485
20
-60
10
1142.354248798667
20
-60
10
1169.8818872080903
20
-40
10
1135.8558548740089
20
-40
10
1163.3834932834322
20
-20
10
1129.3574609493508
20
-20
10
1156.8850993587741
20
0
10
1190.9111316928556
20
0
10
1163.3834932834322
20
-20
10
1197.4095256175137
20
-20
10
1169.8818872080903
20
-40
10
1203.9079195421718
20
-40
10
1176.3802811327485
20
-60
10
1210.40631346683
20
-60
10
1182.8786750574066
20
-80
10
1216.904707391488
20
-80
10
1189.3770689820647
20
-100
10
1223.4031013161461
20
-100
10
1195.8754629067228
20
-120
10
1229.9014952408043
20
-120
10
1202.3738568313809
20
-140
10
1236.3998891654624
20
-140
10
1208.872250756039
20
-160
10
1242.8982830901205
20
-160
10
1215.370644680697
20
-180
10
1249.3966770147786
20
-180
10
1221.8690386053552
20
-200
10
1255.8950709394367
20
-200
10
1283.42270934886
20
-180
10
1249.3966770147786
20
-180
10
1276.924315424202
20
-160
10
1242.8982830901205
20
-160
10
1270.4259214995438
20
-140
10
1236.3998891654624
20
-140
10
1263.9275275748857
20
-120
10
1229.9014952408043
20
-120
10
1257.4291336502276
20
-100
10
1223.4031013161461
20
-100
10
1250.9307397255695
20
-80
10
1216.904707391488
20
-80
10
1244.4323458009114
20
-60
10
1210.40631346683
20
-60
10
1237.9339518762533
20
-40
10
1203.9079195421718
20
-40
10
1231.4355579515952
20
-20
10
1197.4095256175137
20
-20
10
1224.9371640269371
20
0
10
1258.9631963610186
20
0
10
1231.4355579515952
20
-20
10
1265.4615902856767
20
-20
10
1237.9339518762533
20
-40
10
1271.9599842103348
20
-40
10
1244.4323458009114
20
-60
10
1278.458378134993
20
-60
10
1250.9307397255695
20
-80
10
1284.956772059651
20
-80
10
1257.4291336502276
20
-100
10
1291.4551659843091
20
-100
10
1263.9275275748857
20
-120
10
1297.9535599089672
20
-120
10
1270.4259214995438
20
-140
10
1304.4519538336253
20
-140
10
1276.924315424202
20
-160
10
1310.9503477582834
20
-160
10
1283.42270934886
20
-180
10
1317.4487416829415
20
-180
10
1289.9211032735182
20
-200
10
1323.9471356075996
20
-200
10
1351.474774017023
20
-180
10
1317.4487416829415
20
-180
10
1344.976380092365
20
-160
10
1310.9503477582834
20
-160
10
1338.4779861677068
20
-140
10
1304.4519538336253
20
-140
10
1331.9795922430487
20
-120
10
1297.9535599089672
20
-120
10
1325.4811983183906
20
-100
10
1291.4551659843091
20
-100
10
1318.9828043937325
20
-80
10
1284.956772059651
20
-80
10
1312.4844104690744
20
-60
10
1278.458378134993
20
-60
10
1305.9860165444163
20
-40
10
1271.9599842103348
20
-40
10
1299.4876226197582
20
-20
10
1265.4615902856767
20
-20
10
1292.9892286951
20
0
10
1327.0152610291816
20
0
10
1299.4876226197582
20
-20
10
1333.5136549538397
20
-20
10
1305.9860165444163
20
-40
10
1340.0120488784978
20
-40
10
1312.4844104690744
20
-60
10
1346.510442803156
20
-60
10
1318.9828043937325
20
-80
10
1353.008836727814
20
-80
10
1325.4811983183906
20
-100
10
1359.5072306524721
20
-100
10
1331.9795922430487
20
-120
10
1366.0056245771302
20
-120
10
1338.4779861677068
20
-140
10
1372.5040185017883
20
-140
10
1344.976380092365
20
-160
10
1379.0024124264464
20
-160
10
1351.474774017023
20
-180
10
1385.5008063511045
20
-180
10
1357.9731679416811
20
-200
10
1391.9992002757626
20
-200
10
1419.526838685186
20
-180
10
1385.5008063511045
20
-180
10
1413.028444760528
20
-160
10
1379.0024124264464
20
-160
10
1406.5300508358698
20
-140
10
1372.5040185017883
20
-140
10
1400.0316569112117
20
-120
10
1366.0056245771302
20
-120
10
1393.5332629865536
20
-100
10
1359.5072306524721
20
-100
10
1387.0348690618955
20
-80
10
1353.008836727814
20
-80
10
1380.5364751372374
20
-60
10
1346.510442803156
20
-60
10
1374.0380812125793
20
-40
10
1340.0120488784978
20
-40
10
1367.5396872879212
20
-20
10
1333.5136549538397
20
-20
10
1361.041293363263
20
0
10
1395.0673256973446
20
0
10
1367.5396872879212
20
-20
10
1401.5657196220027
20
-20
10
1374.0380812125793
20
-40
10
1408.0641135466608
20
-40
10
1380.5364751372374
20
-60
10
1414.562507471319
20
-60
10
1387.0348690618955
20
-80
10
1421.060901395977
20
-80
10
1393.5332629865536
20
-100
10
1427.559295320635
20
-100
10
1400.0316569112117
20
-120
10
1434.0576892452932
20
-120
10
1406.5300508358698
20
-140
10
1440.5560831699513
20
-140
10
1413.028444760528
20
-160
10
1447.0544770946094
20
-160
10
1419.526838685186
20
-180
10
1453.5528710192675
20
-180
10
1426.0252326098441
20
-200
10
1460.0512649439256
20
-200
10
1487.578903353349
20
-180
10
1453.5528710192675
20
-180
10
1481.080509428691
20
-160
10
1447.0544770946094
20
-160
10
1474.5821155040328
20
-140
10
1440.5560831699513
20
-140
10
1468.0837215793747
20
-120
10
1434.0576892452932
20
-120
10
1461.5853276547166
20
-100
10
1427.559295320635
20
-100
10
1455.0869337300585
20
-80
10
1421.060901395977
20
-80
10
1448.5885398054004
20
-60
10
1414.562507471319
20
-60
10
1442.0901458807423
20
-40
10
1408.0641135466608
20
-40
10
1435.5917519560842
20
-20
10
1401.5657196220027
20
-20
10
1429.093358031426
20
0
10
1494.0772972780073
20
-200
10
64.98393924658131
20
-200
10
0
20
0
10
1429.093358031426
20
0
0
ENDSEC
0
EOF
