0
SECTION
2
ENTITIES
 0
LWPOLYLINE
8
lineA
10
0
20
0
10
34.0260323340816
20
0
10
23.511410091698924
20
-32.3606797749979
10
-10.514622242382675
20
-32.3606797749979
10
-21.02924448476535
20
-64.7213595499958
10
12.996787849316249
20
-64.7213595499958
10
2.482165606933574
20
-97.0820393249937
10
-31.543866727148025
20
-97.0820393249937
10
-42.0584889695307
20
-129.4427190999916
10
-8.032456635449101
20
-129.4427190999916
10
-18.547078877831776
20
-161.80339887498948
10
15.478953456249823
20
-161.80339887498948
10
4.964331213867148
20
-194.16407864998737
10
-29.06170112021445
20
-194.16407864998737
10
-39.57632336259712
20
-226.52475842498527
10
-5.550291028515524
20
-226.52475842498527
10
-16.0649132708982
20
-258.8854381999832
10
17.9611190631834
20
-258.8854381999832
10
7.446496820800725
20
-291.2461179749811
10
-26.579535513280874
20
-291.2461179749811
10
-37.094157755663545
20
-323.60679774997897
10
-3.0681254215819465
20
-323.60679774997897
10
-13.582747663964621
20
-355.96747752497686
10
20.443284670116977
20
-355.96747752497686
10
9.928662427734302
20
-388.32815729997475
10
-24.097369906347296
20
-388.32815729997475
10
-34.61199214872997
20
-420.68883707497264
10
-0.5859598146483691
20
-420.68883707497264
10
-11.100582057031044
20
-453.04951684997053
10
22.925450277050555
20
-453.04951684997053
10
12.41082803466788
20
-485.4101966249684
10
-21.61520429941372
20
-485.4101966249684
10
-32.12982654179639
20
-517.7708763999664
10
1.8962057922852082
20
-517.7708763999664
10
12.410828034667883
20
-485.4101966249685
10
46.43686036874948
20
-485.4101966249685
10
56.95148261113215
20
-453.0495168499706
10
22.92545027705055
20
-453.0495168499706
10
33.44007251943323
20
-420.6888370749727
10
-0.5859598146483691
20
-420.6888370749727
10
9.928662427734306
20
-388.3281572999748
10
43.9546947618159
20
-388.3281572999748
10
54.46931700419857
20
-355.9674775249769
10
20.443284670116974
20
-355.9674775249769
10
30.95790691249965
20
-323.606797749979
10
-3.06812542158195
20
-323.606797749979
10
7.446496820800725
20
-291.24611797498113
10
41.472529154882324
20
-291.24611797498113
10
51.987151397264995
20
-258.88543819998324
10
17.961119063183396
20
-258.88543819998324
10
28.47574130556607
20
-226.52475842498535
10
-5.550291028515527
20
-226.52475842498535
10
4.964331213867148
20
-194.16407864998746
10
38.990363547948746
20
-194.16407864998746
10
49.50498579033142
20
-161.80339887498957
10
15.478953456249819
20
-161.80339887498957
10
25.993575698632494
20
-129.44271909999168
10
-8.032456635449105
20
-129.44271909999168
10
2.4821656069335702
20
-97.08203932499379
10
36.50819794101517
20
-97.08203932499379
10
47.02282018339784
20
-64.7213595499959
10
12.996787849316242
20
-64.7213595499959
10
23.511410091698917
20
-32.360679774998
10
57.53744242578051
20
-32.360679774998
10
68.05206466816318
20
-9.947598300641403e-14
10
102.07809700224479
20
-9.947598300641403e-14
10
91.56347475986212
20
-32.360679774998
10
57.53744242578052
20
-32.360679774998
10
47.02282018339784
20
-64.7213595499959
10
81.04885251747945
20
-64.7213595499959
10
70.53423027509677
20
-97.08203932499379
10
36.508197941015176
20
-97.08203932499379
10
25.9935756986325
20
-129.44271909999168
10
60.0196080327141
20
-129.44271909999168
10
49.50498579033143
20
-161.80339887498957
10
83.53101812441304
20
-161.80339887498957
10
73.01639588203037
20
-194.16407864998746
10
38.99036354794877
20
-194.16407864998746
10
28.475741305566093
20
-226.52475842498535
10
62.501773639647695
20
-226.52475842498535
10
51.98715139726502
20
-258.88543819998324
10
86.01318373134663
20
-258.88543819998324
10
75.49856148896396
20
-291.24611797498113
10
41.47252915488236
20
-291.24611797498113
10
30.957906912499684
20
-323.606797749979
10
64.98393924658129
20
-323.606797749979
10
54.469317004198615
20
-355.9674775249769
10
88.49534933828022
20
-355.9674775249769
10
77.98072709589755
20
-388.3281572999748
10
43.95469476181595
20
-388.3281572999748
10
33.44007251943327
20
-420.6888370749727
10
67.46610485351488
20
-420.6888370749727
10
56.95148261113221
20
-453.0495168499706
10
90.97751494521381
20
-453.0495168499706
10
80.46289270283114
20
-485.4101966249685
10
46.43686036874954
20
-485.4101966249685
10
35.922238126366864
20
-517.7708763999664
10
69.94827046044847
20
-517.7708763999664
10
80.46289270283114
20
-485.4101966249685
10
114.48892503691275
20
-485.4101966249685
10
125.00354727929542
20
-453.0495168499706
10
90.97751494521381
20
-453.0495168499706
10
101.49213718759648
20
-420.6888370749727
10
67.46610485351488
20
-420.6888370749727
10
77.98072709589755
20
-388.3281572999748
10
112.00675942997916
20
-388.3281572999748
10
122.52138167236183
20
-355.9674775249769
10
88.49534933828022
20
-355.9674775249769
10
99.00997158066289
20
-323.606797749979
10
64.98393924658129
20
-323.606797749979
10
75.49856148896396
20
-291.24611797498113
10
109.52459382304556
20
-291.24611797498113
10
120.03921606542823
20
-258.88543819998324
10
86.01318373134663
20
-258.88543819998324
10
96.5278059737293
20
-226.52475842498535
10
62.5017736396477
20
-226.52475842498535
10
73.01639588203038
20
-194.16407864998746
10
107.04242821611197
20
-194.16407864998746
10
117.55705045849464
20
-161.80339887498957
10
83.53101812441304
20
-161.80339887498957
10
94.04564036679571
20
-129.44271909999168
10
60.01960803271411
20
-129.44271909999168
10
70.53423027509679
20
-97.08203932499379
10
104.56026260917838
20
-97.08203932499379
10
115.07488485156105
20
-64.7213595499959
10
81.04885251747945
20
-64.7213595499959
10
91.56347475986212
20
-32.360679774998
10
125.58950709394372
20
-32.360679774998
10
136.1041293363264
20
-9.947598300641403e-14
10
170.130161670408
20
-9.947598300641403e-14
10
159.61553942802533
20
-32.360679774998
10
125.58950709394372
20
-32.360679774998
10
115.07488485156105
20
-64.7213595499959
10
149.10091718564266
20
-64.7213595499959
10
138.58629494326
20
-97.08203932499379
10
104.56026260917838
20
-97.08203932499379
10
94.04564036679571
20
-129.44271909999168
10
128.07167270087731
20
-129.44271909999168
10
117.55705045849464
20
-161.80339887498957
10
151.58308279257625
20
-161.80339887498957
10
141.06846055019358
20
-194.16407864998746
10
107.04242821611197
20
-194.16407864998746
10
96.5278059737293
20
-226.52475842498535
10
130.5538383078109
20
-226.52475842498535
10
120.03921606542823
20
-258.88543819998324
10
154.06524839950984
20
-258.88543819998324
10
143.55062615712717
20
-291.24611797498113
10
109.52459382304556
20
-291.24611797498113
10
99.00997158066289
20
-323.606797749979
10
133.0360039147445
20
-323.606797749979
10
122.52138167236183
20
-355.9674775249769
10
156.54741400644343
20
-355.9674775249769
10
146.03279176406076
20
-388.3281572999748
10
112.00675942997916
20
-388.3281572999748
10
101.49213718759648
20
-420.6888370749727
10
135.5181695216781
20
-420.6888370749727
10
125.00354727929542
20
-453.0495168499706
10
159.02957961337702
20
-453.0495168499706
10
148.51495737099435
20
-485.4101966249685
10
114.48892503691275
20
-485.4101966249685
10
103.97430279453008
20
-517.7708763999664
10
138.00033512861168
20
-517.7708763999664
10
148.51495737099435
20
-485.4101966249685
10
182.54098970507596
20
-485.4101966249685
10
193.05561194745863
20
-453.0495168499706
10
159.02957961337702
20
-453.0495168499706
10
169.5442018557597
20
-420.6888370749727
10
135.5181695216781
20
-420.6888370749727
10
146.03279176406076
20
-388.3281572999748
10
180.05882409814237
20
-388.3281572999748
10
190.57344634052504
20
-355.9674775249769
10
156.54741400644343
20
-355.9674775249769
10
167.0620362488261
20
-323.606797749979
10
133.0360039147445
20
-323.606797749979
10
143.55062615712717
20
-291.24611797498113
10
177.57665849120878
20
-291.24611797498113
10
188.09128073359145
20
-258.88543819998324
10
154.06524839950984
20
-258.88543819998324
10
164.5798706418925
20
-226.52475842498535
10
130.5538383078109
20
-226.52475842498535
10
141.06846055019358
20
-194.16407864998746
10
175.09449288427518
20
-194.16407864998746
10
185.60911512665785
20
-161.80339887498957
10
151.58308279257625
20
-161.80339887498957
10
162.09770503495892
20
-129.44271909999168
10
128.07167270087731
20
-129.44271909999168
10
138.58629494326
20
-97.08203932499379
10
172.6123272773416
20
-97.08203932499379
10
183.12694951972426
20
-64.7213595499959
10
149.10091718564266
20
-64.7213595499959
10
159.61553942802533
20
-32.360679774998
10
193.64157176210693
20
-32.360679774998
10
204.1561940044896
20
-9.947598300641403e-14
10
238.1822263385712
20
-9.947598300641403e-14
10
227.66760409618854
20
-32.360679774998
10
193.64157176210693
20
-32.360679774998
10
183.12694951972426
20
-64.7213595499959
10
217.15298185380587
20
-64.7213595499959
10
206.6383596114232
20
-97.08203932499379
10
172.6123272773416
20
-97.08203932499379
10
162.09770503495892
20
-129.44271909999168
10
196.12373736904053
20
-129.44271909999168
10
185.60911512665785
20
-161.80339887498957
10
219.63514746073946
20
-161.80339887498957
10
209.1205252183568
20
-194.16407864998746
10
175.09449288427518
20
-194.16407864998746
10
164.5798706418925
20
-226.52475842498535
10
198.60590297597412
20
-226.52475842498535
10
188.09128073359145
20
-258.88543819998324
10
222.11731306767305
20
-258.88543819998324
10
211.60269082529038
20
-291.24611797498113
10
177.57665849120878
20
-291.24611797498113
10
167.0620362488261
20
-323.606797749979
10
201.0880685829077
20
-323.606797749979
10
190.57344634052504
20
-355.9674775249769
10
224.59947867460664
20
-355.9674775249769
10
214.08485643222397
20
-388.3281572999748
10
180.05882409814237
20
-388.3281572999748
10
169.5442018557597
20
-420.6888370749727
10
203.5702341898413
20
-420.6888370749727
10
193.05561194745863
20
-453.0495168499706
10
227.08164428154024
20
-453.0495168499706
10
216.56702203915756
20
-485.4101966249685
10
182.54098970507596
20
-485.4101966249685
10
172.0263674626933
20
-517.7708763999664
10
206.0523997967749
20
-517.7708763999664
10
216.56702203915756
20
-485.4101966249685
10
250.59305437323917
20
-485.4101966249685
10
261.10767661562187
20
-453.0495168499706
10
227.08164428154026
20
-453.0495168499706
10
237.59626652392294
20
-420.6888370749727
10
203.57023418984133
20
-420.6888370749727
10
214.084856432224
20
-388.3281572999748
10
248.1108887663056
20
-388.3281572999748
10
258.6255110086883
20
-355.9674775249769
10
224.5994786746067
20
-355.9674775249769
10
235.11410091698937
20
-323.606797749979
10
201.08806858290777
20
-323.606797749979
10
211.60269082529044
20
-291.24611797498113
10
245.62872315937204
20
-291.24611797498113
10
256.14334540175474
20
-258.88543819998324
10
222.11731306767314
20
-258.88543819998324
10
232.6319353100558
20
-226.52475842498535
10
198.6059029759742
20
-226.52475842498535
10
209.12052521835687
20
-194.16407864998746
10
243.14655755243848
20
-194.16407864998746
10
253.66117979482115
20
-161.80339887498957
10
219.63514746073955
20
-161.80339887498957
10
230.14976970312222
20
-129.44271909999168
10
196.1237373690406
20
-129.44271909999168
10
206.63835961142328
20
-97.08203932499379
10
240.6643919455049
20
-97.08203932499379
10
251.17901418788756
20
-64.7213595499959
10
217.15298185380595
20
-64.7213595499959
10
227.66760409618863
20
-32.360679774998
10
261.6936364302702
20
-32.360679774998
10
272.2082586726529
20
-9.947598300641403e-14
10
306.2342910067345
20
-9.947598300641403e-14
10
295.7196687643518
20
-32.360679774998
10
261.6936364302702
20
-32.360679774998
10
251.17901418788753
20
-64.7213595499959
10
285.2050465219691
20
-64.7213595499959
10
274.6904242795864
20
-97.08203932499379
10
240.6643919455048
20
-97.08203932499379
10
230.14976970312213
20
-129.44271909999168
10
264.1758020372037
20
-129.44271909999168
10
253.66117979482104
20
-161.80339887498957
10
287.6872121289026
20
-161.80339887498957
10
277.1725898865199
20
-194.16407864998746
10
243.1465575524383
20
-194.16407864998746
10
232.63193531005564
20
-226.52475842498535
10
266.6579676441372
20
-226.52475842498535
10
256.1433454017545
20
-258.88543819998324
10
290.1693777358361
20
-258.88543819998324
10
279.6547554934534
20
-291.24611797498113
10
245.62872315937182
20
-291.24611797498113
10
235.11410091698914
20
-323.606797749979
10
269.1401332510707
20
-323.606797749979
10
258.625511008688
20
-355.9674775249769
10
292.6515433427696
20
-355.9674775249769
10
282.1369211003869
20
-388.3281572999748
10
248.11088876630532
20
-388.3281572999748
10
237.59626652392265
20
-420.6888370749727
10
271.6222988580042
20
-420.6888370749727
10
261.10767661562153
20
-453.0495168499706
10
295.13370894970313
20
-453.0495168499706
10
284.61908670732043
20
-485.4101966249685
10
250.59305437323883
20
-485.4101966249685
10
240.07843213085616
20
-517.7708763999664
10
274.10446446493773
20
-517.7708763999664
10
284.61908670732043
20
-485.4101966249685
10
318.64511904140204
20
-485.4101966249685
10
329.15974128378474
20
-453.0495168499706
10
295.13370894970313
20
-453.0495168499706
10
305.64833119208583
20
-420.6888370749727
10
271.6222988580042
20
-420.6888370749727
10
282.1369211003869
20
-388.3281572999748
10
316.16295343446853
20
-388.3281572999748
10
326.67757567685123
20
-355.9674775249769
10
292.6515433427696
20
-355.9674775249769
10
303.1661655851523
20
-323.606797749979
10
269.1401332510707
20
-323.606797749979
10
279.6547554934534
20
-291.24611797498113
10
313.680787827535
20
-291.24611797498113
10
324.1954100699177
20
-258.88543819998324
10
290.1693777358361
20
-258.88543819998324
10
300.6839999782188
20
-226.52475842498535
10
266.6579676441372
20
-226.52475842498535
10
277.1725898865199
20
-194.16407864998746
10
311.1986222206015
20
-194.16407864998746
10
321.7132444629842
20
-161.80339887498957
10
287.6872121289026
20
-161.80339887498957
10
298.2018343712853
20
-129.44271909999168
10
264.1758020372037
20
-129.44271909999168
10
274.6904242795864
20
-97.08203932499379
10
308.716456613668
20
-97.08203932499379
10
319.2310788560507
20
-64.7213595499959
10
285.2050465219691
20
-64.7213595499959
10
295.7196687643518
20
-32.360679774998
10
329.7457010984334
20
-32.360679774998
10
340.2603233408161
20
-9.947598300641403e-14
10
374.2863556748977
20
-9.947598300641403e-14
10
363.771733432515
20
-32.360679774998
10
329.7457010984334
20
-32.360679774998
10
319.2310788560507
20
-64.7213595499959
10
353.2571111901323
20
-64.7213595499959
10
342.7424889477496
20
-97.08203932499379
10
308.716456613668
20
-97.08203932499379
10
298.2018343712853
20
-129.44271909999168
10
332.2278667053669
20
-129.44271909999168
10
321.7132444629842
20
-161.80339887498957
10
355.7392767970658
20
-161.80339887498957
10
345.2246545546831
20
-194.16407864998746
10
311.1986222206015
20
-194.16407864998746
10
300.6839999782188
20
-226.52475842498535
10
334.7100323123004
20
-226.52475842498535
10
324.1954100699177
20
-258.88543819998324
10
358.22144240399933
20
-258.88543819998324
10
347.70682016161663
20
-291.24611797498113
10
313.680787827535
20
-291.24611797498113
10
303.1661655851523
20
-323.606797749979
10
337.19219791923393
20
-323.606797749979
10
326.67757567685123
20
-355.9674775249769
10
360.70360801093284
20
-355.9674775249769
10
350.18898576855014
20
-388.3281572999748
10
316.16295343446853
20
-388.3281572999748
10
305.64833119208583
20
-420.6888370749727
10
339.67436352616744
20
-420.6888370749727
10
329.15974128378474
20
-453.0495168499706
10
363.18577361786635
20
-453.0495168499706
10
352.67115137548365
20
-485.4101966249685
10
318.64511904140204
20
-485.4101966249685
10
308.13049679901934
20
-517.7708763999664
10
342.15652913310095
20
-517.7708763999664
10
352.67115137548365
20
-485.4101966249685
10
386.69718370956525
20
-485.4101966249685
10
397.21180595194795
20
-453.0495168499706
10
363.18577361786635
20
-453.0495168499706
10
373.70039586024905
20
-420.6888370749727
10
339.67436352616744
20
-420.6888370749727
10
350.18898576855014
20
-388.3281572999748
10
384.21501810263175
20
-388.3281572999748
10
394.72964034501445
20
-355.9674775249769
10
360.70360801093284
20
-355.9674775249769
10
371.21823025331554
20
-323.606797749979
10
337.19219791923393
20
-323.606797749979
10
347.70682016161663
20
-291.24611797498113
10
381.73285249569824
20
-291.24611797498113
10
392.24747473808094
20
-258.88543819998324
10
358.22144240399933
20
-258.88543819998324
10
368.73606464638203
20
-226.52475842498535
10
334.7100323123004
20
-226.52475842498535
10
345.2246545546831
20
-194.16407864998746
10
379.25068688876473
20
-194.16407864998746
10
389.76530913114743
20
-161.80339887498957
10
355.7392767970658
20
-161.80339887498957
10
366.2538990394485
20
-129.44271909999168
10
332.2278667053669
20
-129.44271909999168
10
342.7424889477496
20
-97.08203932499379
10
376.7685212818312
20
-97.08203932499379
10
387.2831435242139
20
-64.7213595499959
10
353.2571111901323
20
-64.7213595499959
10
363.771733432515
20
-32.360679774998
10
397.7977657665966
20
-32.360679774998
10
408.3123880089793
20
-9.947598300641403e-14
10
442.33842034306093
20
-9.947598300641403e-14
10
431.82379810067823
20
-32.360679774998
10
397.7977657665966
20
-32.360679774998
10
387.2831435242139
20
-64.7213595499959
10
421.30917585829553
20
-64.7213595499959
10
410.79455361591283
20
-97.08203932499379
10
376.7685212818312
20
-97.08203932499379
10
366.2538990394485
20
-129.44271909999168
10
400.27993137353013
20
-129.44271909999168
10
389.76530913114743
20
-161.80339887498957
10
423.79134146522904
20
-161.80339887498957
10
413.27671922284634
20
-194.16407864998746
10
379.25068688876473
20
-194.16407864998746
10
368.73606464638203
20
-226.52475842498535
10
402.76209698046364
20
-226.52475842498535
10
392.24747473808094
20
-258.88543819998324
10
426.27350707216254
20
-258.88543819998324
10
415.75888482977984
20
-291.24611797498113
10
381.73285249569824
20
-291.24611797498113
10
371.21823025331554
20
-323.606797749979
10
405.24426258739715
20
-323.606797749979
10
394.72964034501445
20
-355.9674775249769
10
428.75567267909605
20
-355.9674775249769
10
418.24105043671335
20
-388.3281572999748
10
384.21501810263175
20
-388.3281572999748
10
373.70039586024905
20
-420.6888370749727
10
407.72642819433065
20
-420.6888370749727
10
397.21180595194795
20
-453.0495168499706
10
431.23783828602956
20
-453.0495168499706
10
420.72321604364686
20
-485.4101966249685
10
386.69718370956525
20
-485.4101966249685
10
376.18256146718255
20
-517.7708763999664
10
410.20859380126416
20
-517.7708763999664
10
420.72321604364686
20
-485.4101966249685
10
454.74924837772846
20
-485.4101966249685
10
465.26387062011116
20
-453.0495168499706
10
431.23783828602956
20
-453.0495168499706
10
441.75246052841226
20
-420.6888370749727
10
407.72642819433065
20
-420.6888370749727
10
418.24105043671335
20
-388.3281572999748
10
452.26708277079496
20
-388.3281572999748
10
462.78170501317766
20
-355.9674775249769
10
428.75567267909605
20
-355.9674775249769
10
439.27029492147875
20
-323.606797749979
10
405.24426258739715
20
-323.606797749979
10
415.75888482977984
20
-291.24611797498113
10
449.78491716386145
20
-291.24611797498113
10
460.29953940624415
20
-258.88543819998324
10
426.27350707216254
20
-258.88543819998324
10
436.78812931454524
20
-226.52475842498535
10
402.76209698046364
20
-226.52475842498535
10
413.27671922284634
20
-194.16407864998746
10
447.30275155692794
20
-194.16407864998746
10
457.81737379931064
20
-161.80339887498957
10
423.79134146522904
20
-161.80339887498957
10
434.30596370761174
20
-129.44271909999168
10
400.27993137353013
20
-129.44271909999168
10
410.79455361591283
20
-97.08203932499379
10
444.82058594999444
20
-97.08203932499379
10
455.33520819237714
20
-64.7213595499959
10
421.30917585829553
20
-64.7213595499959
10
431.82379810067823
20
-32.360679774998
10
465.84983043475984
20
-32.360679774998
10
476.36445267714254
20
-9.947598300641403e-14
10
510.39048501122414
20
-9.947598300641403e-14
10
499.87586276884144
20
-32.360679774998
10
465.84983043475984
20
-32.360679774998
10
455.33520819237714
20
-64.7213595499959
10
489.36124052645874
20
-64.7213595499959
10
478.84661828407604
20
-97.08203932499379
10
444.82058594999444
20
-97.08203932499379
10
434.30596370761174
20
-129.44271909999168
10
468.33199604169334
20
-129.44271909999168
10
457.81737379931064
20
-161.80339887498957
10
491.84340613339225
20
-161.80339887498957
10
481.32878389100955
20
-194.16407864998746
10
447.30275155692794
20
-194.16407864998746
10
436.78812931454524
20
-226.52475842498535
10
470.81416164862685
20
-226.52475842498535
10
460.29953940624415
20
-258.88543819998324
10
494.32557174032576
20
-258.88543819998324
10
483.81094949794306
20
-291.24611797498113
10
449.78491716386145
20
-291.24611797498113
10
439.27029492147875
20
-323.606797749979
10
473.29632725556036
20
-323.606797749979
10
462.78170501317766
20
-355.9674775249769
10
496.80773734725926
20
-355.9674775249769
10
486.29311510487656
20
-388.3281572999748
10
452.26708277079496
20
-388.3281572999748
10
441.75246052841226
20
-420.6888370749727
10
475.77849286249386
20
-420.6888370749727
10
465.26387062011116
20
-453.0495168499706
10
499.28990295419277
20
-453.0495168499706
10
488.77528071181007
20
-485.4101966249685
10
454.74924837772846
20
-485.4101966249685
10
444.23462613534576
20
-517.7708763999664
10
478.26065846942737
20
-517.7708763999664
10
488.77528071181007
20
-485.4101966249685
10
522.8013130458917
20
-485.4101966249685
10
533.3159352882743
20
-453.0495168499706
10
499.2899029541927
20
-453.0495168499706
10
509.8045251965754
20
-420.6888370749727
10
475.7784928624938
20
-420.6888370749727
10
486.2931151048765
20
-388.3281572999748
10
520.3191474389581
20
-388.3281572999748
10
530.8337696813408
20
-355.9674775249769
10
496.80773734725915
20
-355.9674775249769
10
507.32235958964185
20
-323.606797749979
10
473.29632725556024
20
-323.606797749979
10
483.81094949794294
20
-291.24611797498113
10
517.8369818320245
20
-291.24611797498113
10
528.3516040744072
20
-258.88543819998324
10
494.3255717403256
20
-258.88543819998324
10
504.8401939827083
20
-226.52475842498535
10
470.8141616486267
20
-226.52475842498535
10
481.3287838910094
20
-194.16407864998746
10
515.354816225091
20
-194.16407864998746
10
525.8694384674736
20
-161.80339887498957
10
491.843406133392
20
-161.80339887498957
10
502.3580283757747
20
-129.44271909999168
10
468.3319960416931
20
-129.44271909999168
10
478.8466182840758
20
-97.08203932499379
10
512.8726506181574
20
-97.08203932499379
10
523.3872728605401
20
-64.7213595499959
10
489.36124052645846
20
-64.7213595499959
10
499.87586276884116
20
-32.360679774998
10
533.9018951029227
20
-32.360679774998
10
544.4165173453054
20
-9.947598300641403e-14
10
578.442549679387
20
-9.947598300641403e-14
10
567.9279274370043
20
-32.360679774998
10
533.9018951029227
20
-32.360679774998
10
523.3872728605401
20
-64.7213595499959
10
557.4133051946217
20
-64.7213595499959
10
546.898682952239
20
-97.08203932499379
10
512.8726506181574
20
-97.08203932499379
10
502.3580283757747
20
-129.44271909999168
10
536.3840607098563
20
-129.44271909999168
10
525.8694384674736
20
-161.80339887498957
10
559.8954708015552
20
-161.80339887498957
10
549.3808485591726
20
-194.16407864998746
10
515.354816225091
20
-194.16407864998746
10
504.8401939827083
20
-226.52475842498535
10
538.8662263167898
20
-226.52475842498535
10
528.3516040744072
20
-258.88543819998324
10
562.3776364084888
20
-258.88543819998324
10
551.8630141661062
20
-291.24611797498113
10
517.8369818320245
20
-291.24611797498113
10
507.32235958964185
20
-323.606797749979
10
541.3483919237234
20
-323.606797749979
10
530.8337696813408
20
-355.9674775249769
10
564.8598020154224
20
-355.9674775249769
10
554.3451797730397
20
-388.3281572999748
10
520.3191474389581
20
-388.3281572999748
10
509.8045251965754
20
-420.6888370749727
10
543.830557530657
20
-420.6888370749727
10
533.3159352882743
20
-453.0495168499706
10
567.3419676223559
20
-453.0495168499706
10
556.8273453799733
20
-485.4101966249685
10
522.8013130458917
20
-485.4101966249685
10
512.286690803509
20
-517.7708763999664
10
546.3127231375906
20
-517.7708763999664
10
556.8273453799733
20
-485.4101966249685
10
590.8533777140549
20
-485.4101966249685
10
601.3679999564375
20
-453.0495168499706
10
567.3419676223559
20
-453.0495168499706
10
577.8565898647386
20
-420.6888370749727
10
543.830557530657
20
-420.6888370749727
10
554.3451797730396
20
-388.3281572999748
10
588.3712121071212
20
-388.3281572999748
10
598.8858343495039
20
-355.9674775249769
10
564.8598020154222
20
-355.9674775249769
10
575.3744242578049
20
-323.606797749979
10
541.3483919237233
20
-323.606797749979
10
551.8630141661059
20
-291.24611797498113
10
585.8890465001875
20
-291.24611797498113
10
596.4036687425702
20
-258.88543819998324
10
562.3776364084886
20
-258.88543819998324
10
572.8922586508712
20
-226.52475842498535
10
538.8662263167896
20
-226.52475842498535
10
549.3808485591723
20
-194.16407864998746
10
583.4068808932539
20
-194.16407864998746
10
593.9215031356365
20
-161.80339887498957
10
559.8954708015549
20
-161.80339887498957
10
570.4100930439375
20
-129.44271909999168
10
536.3840607098559
20
-129.44271909999168
10
546.8986829522386
20
-97.08203932499379
10
580.9247152863202
20
-97.08203932499379
10
591.4393375287028
20
-64.7213595499959
10
557.4133051946212
20
-64.7213595499959
10
567.9279274370039
20
-32.360679774998
10
601.9539597710855
20
-32.360679774998
10
612.4685820134681
20
-9.947598300641403e-14
10
646.4946143475497
20
-9.947598300641403e-14
10
635.9799921051671
20
-32.360679774998
10
601.9539597710855
20
-32.360679774998
10
591.4393375287028
20
-64.7213595499959
10
625.4653698627844
20
-64.7213595499959
10
614.9507476204018
20
-97.08203932499379
10
580.9247152863202
20
-97.08203932499379
10
570.4100930439375
20
-129.44271909999168
10
604.4361253780191
20
-129.44271909999168
10
593.9215031356365
20
-161.80339887498957
10
627.9475354697181
20
-161.80339887498957
10
617.4329132273355
20
-194.16407864998746
10
583.4068808932539
20
-194.16407864998746
10
572.8922586508712
20
-226.52475842498535
10
606.9182909849528
20
-226.52475842498535
10
596.4036687425702
20
-258.88543819998324
10
630.4297010766518
20
-258.88543819998324
10
619.9150788342691
20
-291.24611797498113
10
585.8890465001875
20
-291.24611797498113
10
575.3744242578049
20
-323.606797749979
10
609.4004565918865
20
-323.606797749979
10
598.8858343495039
20
-355.9674775249769
10
632.9118666835855
20
-355.9674775249769
10
622.3972444412028
20
-388.3281572999748
10
588.3712121071212
20
-388.3281572999748
10
577.8565898647386
20
-420.6888370749727
10
611.8826221988202
20
-420.6888370749727
10
601.3679999564375
20
-453.0495168499706
10
635.3940322905191
20
-453.0495168499706
10
624.8794100481365
20
-485.4101966249685
10
590.8533777140549
20
-485.4101966249685
10
580.3387554716722
20
-517.7708763999664
10
614.3647878057538
20
-517.7708763999664
10
624.8794100481365
20
-485.4101966249685
10
658.9054423822181
20
-485.4101966249685
10
669.4200646246007
20
-453.0495168499706
10
635.3940322905191
20
-453.0495168499706
10
645.9086545329018
20
-420.6888370749727
10
611.8826221988202
20
-420.6888370749727
10
622.3972444412028
20
-388.3281572999748
10
656.4232767752844
20
-388.3281572999748
10
666.9378990176671
20
-355.9674775249769
10
632.9118666835855
20
-355.9674775249769
10
643.4264889259681
20
-323.606797749979
10
609.4004565918865
20
-323.606797749979
10
619.9150788342691
20
-291.24611797498113
10
653.9411111683507
20
-291.24611797498113
10
664.4557334107334
20
-258.88543819998324
10
630.4297010766518
20
-258.88543819998324
10
640.9443233190344
20
-226.52475842498535
10
606.9182909849528
20
-226.52475842498535
10
617.4329132273355
20
-194.16407864998746
10
651.4589455614171
20
-194.16407864998746
10
661.9735678037997
20
-161.80339887498957
10
627.9475354697181
20
-161.80339887498957
10
638.4621577121007
20
-129.44271909999168
10
604.4361253780191
20
-129.44271909999168
10
614.9507476204018
20
-97.08203932499379
10
648.9767799544834
20
-97.08203932499379
10
659.491402196866
20
-64.7213595499959
10
625.4653698627844
20
-64.7213595499959
10
635.9799921051671
20
-32.360679774998
10
670.0060244392487
20
-32.360679774998
10
680.5206466816313
20
-9.947598300641403e-14
10
714.5466790157129
20
-9.947598300641403e-14
10
704.0320567733303
20
-32.360679774998
10
670.0060244392487
20
-32.360679774998
10
659.491402196866
20
-64.7213595499959
10
693.5174345309476
20
-64.7213595499959
10
683.002812288565
20
-97.08203932499379
10
648.9767799544834
20
-97.08203932499379
10
638.4621577121007
20
-129.44271909999168
10
672.4881900461824
20
-129.44271909999168
10
661.9735678037997
20
-161.80339887498957
10
695.9996001378813
20
-161.80339887498957
10
685.4849778954987
20
-194.16407864998746
10
651.4589455614171
20
-194.16407864998746
10
640.9443233190344
20
-226.52475842498535
10
674.970355653116
20
-226.52475842498535
10
664.4557334107334
20
-258.88543819998324
10
698.481765744815
20
-258.88543819998324
10
687.9671435024324
20
-291.24611797498113
10
653.9411111683507
20
-291.24611797498113
10
643.4264889259681
20
-323.606797749979
10
677.4525212600497
20
-323.606797749979
10
666.9378990176671
20
-355.9674775249769
10
700.9639313517487
20
-355.9674775249769
10
690.449309109366
20
-388.3281572999748
10
656.4232767752844
20
-388.3281572999748
10
645.9086545329018
20
-420.6888370749727
10
679.9346868669834
20
-420.6888370749727
10
669.4200646246007
20
-453.0495168499706
10
703.4460969586823
20
-453.0495168499706
10
692.9314747162997
20
-485.4101966249685
10
658.9054423822181
20
-485.4101966249685
10
648.3908201398355
20
-517.7708763999664
10
682.4168524739171
20
-517.7708763999664
10
692.9314747162997
20
-485.4101966249685
10
726.9575070503813
20
-485.4101966249685
10
737.472129292764
20
-453.0495168499706
10
703.4460969586823
20
-453.0495168499706
10
713.960719201065
20
-420.6888370749727
10
679.9346868669834
20
-420.6888370749727
10
690.449309109366
20
-388.3281572999748
10
724.4753414434476
20
-388.3281572999748
10
734.9899636858303
20
-355.9674775249769
10
700.9639313517487
20
-355.9674775249769
10
711.4785535941313
20
-323.606797749979
10
677.4525212600497
20
-323.606797749979
10
687.9671435024324
20
-291.24611797498113
10
721.993175836514
20
-291.24611797498113
10
732.5077980788966
20
-258.88543819998324
10
698.481765744815
20
-258.88543819998324
10
708.9963879871976
20
-226.52475842498535
10
674.970355653116
20
-226.52475842498535
10
685.4849778954987
20
-194.16407864998746
10
719.5110102295803
20
-194.16407864998746
10
730.0256324719629
20
-161.80339887498957
10
695.9996001378813
20
-161.80339887498957
10
706.514222380264
20
-129.44271909999168
10
672.4881900461824
20
-129.44271909999168
10
683.002812288565
20
-97.08203932499379
10
717.0288446226466
20
-97.08203932499379
10
727.5434668650292
20
-64.7213595499959
10
693.5174345309476
20
-64.7213595499959
10
704.0320567733303
20
-32.360679774998
10
738.0580891074119
20
-32.360679774998
10
748.5727113497945
20
-9.947598300641403e-14
10
782.5987436838761
20
-9.947598300641403e-14
10
772.0841214414935
20
-32.360679774998
10
738.0580891074119
20
-32.360679774998
10
727.5434668650292
20
-64.7213595499959
10
761.5694991991109
20
-64.7213595499959
10
751.0548769567282
20
-97.08203932499379
10
717.0288446226466
20
-97.08203932499379
10
706.514222380264
20
-129.44271909999168
10
740.5402547143456
20
-129.44271909999168
10
730.0256324719629
20
-161.80339887498957
10
764.0516648060445
20
-161.80339887498957
10
753.5370425636619
20
-194.16407864998746
10
719.5110102295803
20
-194.16407864998746
10
708.9963879871976
20
-226.52475842498535
10
743.0224203212792
20
-226.52475842498535
10
732.5077980788966
20
-258.88543819998324
10
766.5338304129782
20
-258.88543819998324
10
756.0192081705956
20
-291.24611797498113
10
721.993175836514
20
-291.24611797498113
10
711.4785535941313
20
-323.606797749979
10
745.5045859282129
20
-323.606797749979
10
734.9899636858303
20
-355.9674775249769
10
769.0159960199119
20
-355.9674775249769
10
758.5013737775292
20
-388.3281572999748
10
724.4753414434476
20
-388.3281572999748
10
713.960719201065
20
-420.6888370749727
10
747.9867515351466
20
-420.6888370749727
10
737.472129292764
20
-453.0495168499706
10
771.4981616268456
20
-453.0495168499706
10
760.9835393844629
20
-485.4101966249685
10
726.9575070503813
20
-485.4101966249685
10
716.4428848079987
20
-517.7708763999664
10
750.4689171420803
20
-517.7708763999664
10
760.9835393844629
20
-485.4101966249685
10
795.0095717185445
20
-485.4101966249685
10
805.5241939609272
20
-453.0495168499706
10
771.4981616268456
20
-453.0495168499706
10
782.0127838692282
20
-420.6888370749727
10
747.9867515351466
20
-420.6888370749727
10
758.5013737775292
20
-388.3281572999748
10
792.5274061116108
20
-388.3281572999748
10
803.0420283539935
20
-355.9674775249769
10
769.0159960199119
20
-355.9674775249769
10
779.5306182622945
20
-323.606797749979
10
745.5045859282129
20
-323.606797749979
10
756.0192081705956
20
-291.24611797498113
10
790.0452405046772
20
-291.24611797498113
10
800.5598627470598
20
-258.88543819998324
10
766.5338304129782
20
-258.88543819998324
10
777.0484526553608
20
-226.52475842498535
10
743.0224203212792
20
-226.52475842498535
10
753.5370425636619
20
-194.16407864998746
10
787.5630748977435
20
-194.16407864998746
10
798.0776971401261
20
-161.80339887498957
10
764.0516648060445
20
-161.80339887498957
10
774.5662870484272
20
-129.44271909999168
10
740.5402547143456
20
-129.44271909999168
10
751.0548769567282
20
-97.08203932499379
10
785.0809092908098
20
-97.08203932499379
10
795.5955315331925
20
-64.7213595499959
10
761.5694991991109
20
-64.7213595499959
10
772.0841214414935
20
-32.360679774998
10
806.1101537755751
20
-32.360679774998
10
816.6247760179577
20
-9.947598300641403e-14
10
850.6508083520393
20
-9.947598300641403e-14
10
840.1361861096567
20
-32.360679774998
10
806.1101537755751
20
-32.360679774998
10
795.5955315331925
20
-64.7213595499959
10
829.6215638672741
20
-64.7213595499959
10
819.1069416248914
20
-97.08203932499379
10
785.0809092908098
20
-97.08203932499379
10
774.5662870484272
20
-129.44271909999168
10
808.5923193825088
20
-129.44271909999168
10
798.0776971401261
20
-161.80339887498957
10
832.1037294742077
20
-161.80339887498957
10
821.5891072318251
20
-194.16407864998746
10
787.5630748977435
20
-194.16407864998746
10
777.0484526553608
20
-226.52475842498535
10
811.0744849894425
20
-226.52475842498535
10
800.5598627470598
20
-258.88543819998324
10
834.5858950811414
20
-258.88543819998324
10
824.0712728387588
20
-291.24611797498113
10
790.0452405046772
20
-291.24611797498113
10
779.5306182622945
20
-323.606797749979
10
813.5566505963761
20
-323.606797749979
10
803.0420283539935
20
-355.9674775249769
10
837.0680606880751
20
-355.9674775249769
10
826.5534384456924
20
-388.3281572999748
10
792.5274061116108
20
-388.3281572999748
10
782.0127838692282
20
-420.6888370749727
10
816.0388162033098
20
-420.6888370749727
10
805.5241939609272
20
-453.0495168499706
10
839.5502262950088
20
-453.0495168499706
10
829.0356040526261
20
-485.4101966249685
10
795.0095717185445
20
-485.4101966249685
10
784.4949494761619
20
-517.7708763999664
10
818.5209818102435
20
-517.7708763999664
10
829.0356040526261
20
-485.4101966249685
10
863.0616363867077
20
-485.4101966249685
10
873.5762586290904
20
-453.0495168499706
10
839.5502262950088
20
-453.0495168499706
10
850.0648485373914
20
-420.6888370749727
10
816.0388162033098
20
-420.6888370749727
10
826.5534384456924
20
-388.3281572999748
10
860.579470779774
20
-388.3281572999748
10
871.0940930221567
20
-355.9674775249769
10
837.0680606880751
20
-355.9674775249769
10
847.5826829304577
20
-323.606797749979
10
813.5566505963761
20
-323.606797749979
10
824.0712728387588
20
-291.24611797498113
10
858.0973051728404
20
-291.24611797498113
10
868.611927415223
20
-258.88543819998324
10
834.5858950811414
20
-258.88543819998324
10
845.1005173235241
20
-226.52475842498535
10
811.0744849894425
20
-226.52475842498535
10
821.5891072318251
20
-194.16407864998746
10
855.6151395659067
20
-194.16407864998746
10
866.1297618082893
20
-161.80339887498957
10
832.1037294742077
20
-161.80339887498957
10
842.6183517165904
20
-129.44271909999168
10
808.5923193825088
20
-129.44271909999168
10
819.1069416248914
20
-97.08203932499379
10
853.132973958973
20
-97.08203932499379
10
863.6475962013557
20
-64.7213595499959
10
829.6215638672741
20
-64.7213595499959
10
840.1361861096567
20
-32.360679774998
10
874.1622184437383
20
-32.360679774998
10
884.676840686121
20
-9.947598300641403e-14
10
918.7028730202026
20
-9.947598300641403e-14
10
908.1882507778199
20
-32.360679774998
10
874.1622184437383
20
-32.360679774998
10
863.6475962013557
20
-64.7213595499959
10
897.6736285354373
20
-64.7213595499959
10
887.1590062930546
20
-97.08203932499379
10
853.132973958973
20
-97.08203932499379
10
842.6183517165904
20
-129.44271909999168
10
876.644384050672
20
-129.44271909999168
10
866.1297618082893
20
-161.80339887498957
10
900.155794142371
20
-161.80339887498957
10
889.6411718999883
20
-194.16407864998746
10
855.6151395659067
20
-194.16407864998746
10
845.1005173235241
20
-226.52475842498535
10
879.1265496576057
20
-226.52475842498535
10
868.611927415223
20
-258.88543819998324
10
902.6379597493046
20
-258.88543819998324
10
892.123337506922
20
-291.24611797498113
10
858.0973051728404
20
-291.24611797498113
10
847.5826829304577
20
-323.606797749979
10
881.6087152645393
20
-323.606797749979
10
871.0940930221567
20
-355.9674775249769
10
905.1201253562383
20
-355.9674775249769
10
894.6055031138557
20
-388.3281572999748
10
860.579470779774
20
-388.3281572999748
10
850.0648485373914
20
-420.6888370749727
10
884.090880871473
20
-420.6888370749727
10
873.5762586290904
20
-453.0495168499706
10
907.602290963172
20
-453.0495168499706
10
897.0876687207893
20
-485.4101966249685
10
863.0616363867077
20
-485.4101966249685
10
852.5470141443251
20
-517.7708763999664
10
886.5730464784067
20
-517.7708763999664
10
897.0876687207893
20
-485.4101966249685
10
931.113701054871
20
-485.4101966249685
10
941.6283232972536
20
-453.0495168499706
10
907.602290963172
20
-453.0495168499706
10
918.1169132055546
20
-420.6888370749727
10
884.090880871473
20
-420.6888370749727
10
894.6055031138557
20
-388.3281572999748
10
928.6315354479373
20
-388.3281572999748
10
939.1461576903199
20
-355.9674775249769
10
905.1201253562383
20
-355.9674775249769
10
915.634747598621
20
-323.606797749979
10
881.6087152645393
20
-323.606797749979
10
892.123337506922
20
-291.24611797498113
10
926.1493698410036
20
-291.24611797498113
10
936.6639920833862
20
-258.88543819998324
10
902.6379597493046
20
-258.88543819998324
10
913.1525819916873
20
-226.52475842498535
10
879.1265496576057
20
-226.52475842498535
10
889.6411718999883
20
-194.16407864998746
10
923.6672042340699
20
-194.16407864998746
10
934.1818264764526
20
-161.80339887498957
10
900.155794142371
20
-161.80339887498957
10
910.6704163847536
20
-129.44271909999168
10
876.644384050672
20
-129.44271909999168
10
887.1590062930546
20
-97.08203932499379
10
921.1850386271362
20
-97.08203932499379
10
931.6996608695189
20
-64.7213595499959
10
897.6736285354373
20
-64.7213595499959
10
908.1882507778199
20
-32.360679774998
10
942.2142831119015
20
-32.360679774998
10
952.7289053542842
20
-9.947598300641403e-14
10
986.7549376883658
20
-9.947598300641403e-14
10
976.2403154459831
20
-32.360679774998
10
942.2142831119015
20
-32.360679774998
10
931.6996608695189
20
-64.7213595499959
10
965.7256932036005
20
-64.7213595499959
10
955.2110709612178
20
-97.08203932499379
10
921.1850386271362
20
-97.08203932499379
10
910.6704163847536
20
-129.44271909999168
10
944.6964487188352
20
-129.44271909999168
10
934.1818264764526
20
-161.80339887498957
10
968.2078588105342
20
-161.80339887498957
10
957.6932365681515
20
-194.16407864998746
10
923.6672042340699
20
-194.16407864998746
10
913.1525819916873
20
-226.52475842498535
10
947.1786143257689
20
-226.52475842498535
10
936.6639920833862
20
-258.88543819998324
10
970.6900244174678
20
-258.88543819998324
10
960.1754021750852
20
-291.24611797498113
10
926.1493698410036
20
-291.24611797498113
10
915.634747598621
20
-323.606797749979
10
949.6607799327026
20
-323.606797749979
10
939.1461576903199
20
-355.9674775249769
10
973.1721900244015
20
-355.9674775249769
10
962.6575677820189
20
-388.3281572999748
10
928.6315354479373
20
-388.3281572999748
10
918.1169132055546
20
-420.6888370749727
10
952.1429455396362
20
-420.6888370749727
10
941.6283232972536
20
-453.0495168499706
10
975.6543556313352
20
-453.0495168499706
10
965.1397333889525
20
-485.4101966249685
10
931.113701054871
20
-485.4101966249685
10
920.5990788124883
20
-517.7708763999664
10
954.6251111465699
20
-517.7708763999664
10
965.1397333889525
20
-485.4101966249685
10
999.1657657230342
20
-485.4101966249685
10
1009.6803879654168
20
-453.0495168499706
10
975.6543556313352
20
-453.0495168499706
10
986.1689778737178
20
-420.6888370749727
10
952.1429455396362
20
-420.6888370749727
10
962.6575677820189
20
-388.3281572999748
10
996.6836001161005
20
-388.3281572999748
10
1007.1982223584831
20
-355.9674775249769
10
973.1721900244015
20
-355.9674775249769
10
983.6868122667842
20
-323.606797749979
10
949.6607799327026
20
-323.606797749979
10
960.1754021750852
20
-291.24611797498113
10
994.2014345091668
20
-291.24611797498113
10
1004.7160567515494
20
-258.88543819998324
10
970.6900244174678
20
-258.88543819998324
10
981.2046466598505
20
-226.52475842498535
10
947.1786143257689
20
-226.52475842498535
10
957.6932365681515
20
-194.16407864998746
10
991.7192689022331
20
-194.16407864998746
10
1002.2338911446158
20
-161.80339887498957
10
968.2078588105342
20
-161.80339887498957
10
978.7224810529168
20
-129.44271909999168
10
944.6964487188352
20
-129.44271909999168
10
955.2110709612178
20
-97.08203932499379
10
989.2371032952994
20
-97.08203932499379
10
999.7517255376821
20
-64.7213595499959
10
965.7256932036005
20
-64.7213595499959
10
976.2403154459831
20
-32.360679774998
10
1010.2663477800647
20
-32.360679774998
10
1020.7809700224474
20
-9.947598300641403e-14
10
1054.807002356529
20
-9.947598300641403e-14
10
1044.2923801141462
20
-32.360679774998
10
1010.2663477800646
20
-32.360679774998
10
999.751725537682
20
-64.7213595499959
10
1033.7777578717635
20
-64.7213595499959
10
1023.2631356293808
20
-97.08203932499379
10
989.2371032952992
20
-97.08203932499379
10
978.7224810529166
20
-129.44271909999168
10
1012.7485133869982
20
-129.44271909999168
10
1002.2338911446155
20
-161.80339887498957
10
1036.2599234786971
20
-161.80339887498957
10
1025.7453012363144
20
-194.16407864998746
10
991.7192689022328
20
-194.16407864998746
10
981.2046466598501
20
-226.52475842498535
10
1015.2306789939317
20
-226.52475842498535
10
1004.7160567515491
20
-258.88543819998324
10
1038.7420890856306
20
-258.88543819998324
10
1028.2274668432478
20
-291.24611797498113
10
994.2014345091662
20
-291.24611797498113
10
983.6868122667836
20
-323.606797749979
10
1017.7128446008652
20
-323.606797749979
10
1007.1982223584826
20
-355.9674775249769
10
1041.224254692564
20
-355.9674775249769
10
1030.7096324501813
20
-388.3281572999748
10
996.6836001160997
20
-388.3281572999748
10
986.168977873717
20
-420.6888370749727
10
1020.1950102077986
20
-420.6888370749727
10
1009.680387965416
20
-453.0495168499706
10
1043.7064202994975
20
-453.0495168499706
10
1033.1917980571147
20
-485.4101966249685
10
999.1657657230331
20
-485.4101966249685
10
988.6511434806505
20
-517.7708763999664
10
1022.6771758147321
20
-517.7708763999664
10
1033.1917980571147
20
-485.4101966249685
10
1067.2178303911962
20
-485.4101966249685
10
1077.732452633579
20
-453.0495168499706
10
1043.7064202994975
20
-453.0495168499706
10
1054.2210425418803
20
-420.6888370749727
10
1020.1950102077986
20
-420.6888370749727
10
1030.7096324501813
20
-388.3281572999748
10
1064.7356647842628
20
-388.3281572999748
10
1075.2502870266455
20
-355.9674775249769
10
1041.224254692564
20
-355.9674775249769
10
1051.7388769349468
20
-323.606797749979
10
1017.7128446008652
20
-323.606797749979
10
1028.2274668432478
20
-291.24611797498113
10
1062.2534991773293
20
-291.24611797498113
10
1072.768121419712
20
-258.88543819998324
10
1038.7420890856306
20
-258.88543819998324
10
1049.2567113280134
20
-226.52475842498535
10
1015.2306789939317
20
-226.52475842498535
10
1025.7453012363144
20
-194.16407864998746
10
1059.7713335703959
20
-194.16407864998746
10
1070.2859558127786
20
-161.80339887498957
10
1036.2599234786971
20
-161.80339887498957
10
1046.77454572108
20
-129.44271909999168
10
1012.7485133869983
20
-129.44271909999168
10
1023.2631356293809
20
-97.08203932499379
10
1057.2891679634624
20
-97.08203932499379
10
1067.8037902058452
20
-64.7213595499959
10
1033.7777578717637
20
-64.7213595499959
10
1044.2923801141465
20
-32.360679774998
10
1078.318412448228
20
-32.360679774998
10
1088.8330346906107
20
-9.947598300641403e-14
10
1122.8590670246922
20
-9.947598300641403e-14
10
1112.3444447823094
20
-32.360679774998
10
1078.318412448228
20
-32.360679774998
10
1067.8037902058452
20
-64.7213595499959
10
1101.8298225399267
20
-64.7213595499959
10
1091.315200297544
20
-97.08203932499379
10
1057.2891679634624
20
-97.08203932499379
10
1046.7745457210797
20
-129.44271909999168
10
1080.8005780551612
20
-129.44271909999168
10
1070.2859558127784
20
-161.80339887498957
10
1104.31198814686
20
-161.80339887498957
10
1093.7973659044771
20
-194.16407864998746
10
1059.7713335703957
20
-194.16407864998746
10
1049.256711328013
20
-226.52475842498535
10
1083.2827436620944
20
-226.52475842498535
10
1072.7681214197116
20
-258.88543819998324
10
1106.7941537537931
20
-258.88543819998324
10
1096.2795315114104
20
-291.24611797498113
10
1062.2534991773289
20
-291.24611797498113
10
1051.7388769349461
20
-323.606797749979
10
1085.7649092690276
20
-323.606797749979
10
1075.2502870266449
20
-355.9674775249769
10
1109.2763193607263
20
-355.9674775249769
10
1098.7616971183436
20
-388.3281572999748
10
1064.735664784262
20
-388.3281572999748
10
1054.2210425418793
20
-420.6888370749727
10
1088.2470748759608
20
-420.6888370749727
10
1077.732452633578
20
-453.0495168499706
10
1111.7584849676596
20
-453.0495168499706
10
1101.2438627252768
20
-485.4101966249685
10
1067.2178303911953
20
-485.4101966249685
10
1056.7032081488126
20
-517.7708763999664
10
1090.729240482894
20
-517.7708763999664
10
1101.2438627252768
20
-485.4101966249685
10
1135.2698950593583
20
-485.4101966249685
10
1145.784517301741
20
-453.0495168499706
10
1111.7584849676596
20
-453.0495168499706
10
1122.2731072100423
20
-420.6888370749727
10
1088.2470748759608
20
-420.6888370749727
10
1098.7616971183436
20
-388.3281572999748
10
1132.787729452425
20
-388.3281572999748
10
1143.3023516948078
20
-355.9674775249769
10
1109.2763193607263
20
-355.9674775249769
10
1119.790941603109
20
-323.606797749979
10
1085.7649092690276
20
-323.606797749979
10
1096.2795315114104
20
-291.24611797498113
10
1130.3055638454919
20
-291.24611797498113
10
1140.8201860878746
20
-258.88543819998324
10
1106.7941537537931
20
-258.88543819998324
10
1117.3087759961759
20
-226.52475842498535
10
1083.2827436620944
20
-226.52475842498535
10
1093.7973659044771
20
-194.16407864998746
10
1127.8233982385586
20
-194.16407864998746
10
1138.3380204809414
20
-161.80339887498957
10
1104.31198814686
20
-161.80339887498957
10
1114.8266103892427
20
-129.44271909999168
10
1080.8005780551612
20
-129.44271909999168
10
1091.315200297544
20
-97.08203932499379
10
1125.3412326316254
20
-97.08203932499379
10
1135.8558548740082
20
-64.7213595499959
10
1101.8298225399267
20
-64.7213595499959
10
1112.3444447823094
20
-32.360679774998
10
1146.370477116391
20
-32.360679774998
10
1156.8850993587737
20
-9.947598300641403e-14
10
1190.9111316928552
20
-9.947598300641403e-14
10
1180.3965094504724
20
-32.360679774998
10
1146.370477116391
20
-32.360679774998
10
1135.8558548740082
20
-64.7213595499959
10
1169.8818872080897
20
-64.7213595499959
10
1159.367264965707
20
-97.08203932499379
10
1125.3412326316254
20
-97.08203932499379
10
1114.8266103892427
20
-129.44271909999168
10
1148.8526427233242
20
-129.44271909999168
10
1138.3380204809414
20
-161.80339887498957
10
1172.364052815023
20
-161.80339887498957
10
1161.8494305726401
20
-194.16407864998746
10
1127.8233982385586
20
-194.16407864998746
10
1117.3087759961759
20
-226.52475842498535
10
1151.3348083302574
20
-226.52475842498535
10
1140.8201860878746
20
-258.88543819998324
10
1174.846218421956
20
-258.88543819998324
10
1164.3315961795734
20
-291.24611797498113
10
1130.3055638454919
20
-291.24611797498113
10
1119.790941603109
20
-323.606797749979
10
1153.8169739371906
20
-323.606797749979
10
1143.3023516948078
20
-355.9674775249769
10
1177.3283840288893
20
-355.9674775249769
10
1166.8137617865066
20
-388.3281572999748
10
1132.787729452425
20
-388.3281572999748
10
1122.2731072100423
20
-420.6888370749727
10
1156.2991395441238
20
-420.6888370749727
10
1145.784517301741
20
-453.0495168499706
10
1179.8105496358226
20
-453.0495168499706
10
1169.2959273934398
20
-485.4101966249685
10
1135.2698950593583
20
-485.4101966249685
10
1124.7552728169755
20
-517.7708763999664
10
1158.781305151057
20
-517.7708763999664
10
1169.2959273934398
20
-485.4101966249685
10
1203.3219597275213
20
-485.4101966249685
10
1213.836581969904
20
-453.0495168499706
10
1179.8105496358226
20
-453.0495168499706
10
1190.3251718782053
20
-420.6888370749727
10
1156.2991395441238
20
-420.6888370749727
10
1166.8137617865066
20
-388.3281572999748
10
1200.839794120588
20
-388.3281572999748
10
1211.3544163629708
20
-355.9674775249769
10
1177.3283840288893
20
-355.9674775249769
10
1187.843006271272
20
-323.606797749979
10
1153.8169739371906
20
-323.606797749979
10
1164.3315961795734
20
-291.24611797498113
10
1198.3576285136548
20
-291.24611797498113
10
1208.8722507560376
20
-258.88543819998324
10
1174.846218421956
20
-258.88543819998324
10
1185.3608406643389
20
-226.52475842498535
10
1151.3348083302574
20
-226.52475842498535
10
1161.8494305726401
20
-194.16407864998746
10
1195.8754629067216
20
-194.16407864998746
10
1206.3900851491044
20
-161.80339887498957
10
1172.364052815023
20
-161.80339887498957
10
1182.8786750574056
20
-129.44271909999168
10
1148.8526427233242
20
-129.44271909999168
10
1159.367264965707
20
-97.08203932499379
10
1193.3932972997884
20
-97.08203932499379
10
1203.9079195421712
20
-64.7213595499959
10
1169.8818872080897
20
-64.7213595499959
10
1180.3965094504724
20
-32.360679774998
10
1214.422541784554
20
-32.360679774998
10
1224.9371640269367
20
-9.947598300641403e-14
10
1258.9631963610182
20
-9.947598300641403e-14
10
1248.4485741186354
20
-32.360679774998
10
1214.422541784554
20
-32.360679774998
10
1203.9079195421712
20
-64.7213595499959
10
1237.9339518762526
20
-64.7213595499959
10
1227.41932963387
20
-97.08203932499379
10
1193.3932972997884
20
-97.08203932499379
10
1182.8786750574056
20
-129.44271909999168
10
1216.9047073914871
20
-129.44271909999168
10
1206.3900851491044
20
-161.80339887498957
10
1240.4161174831859
20
-161.80339887498957
10
1229.9014952408031
20
-194.16407864998746
10
1195.8754629067216
20
-194.16407864998746
10
1185.3608406643389
20
-226.52475842498535
10
1219.3868729984204
20
-226.52475842498535
10
1208.8722507560376
20
-258.88543819998324
10
1242.898283090119
20
-258.88543819998324
10
1232.3836608477363
20
-291.24611797498113
10
1198.3576285136548
20
-291.24611797498113
10
1187.843006271272
20
-323.606797749979
10
1221.8690386053536
20
-323.606797749979
10
1211.3544163629708
20
-355.9674775249769
10
1245.3804486970523
20
-355.9674775249769
10
1234.8658264546696
20
-388.3281572999748
10
1200.839794120588
20
-388.3281572999748
10
1190.3251718782053
20
-420.6888370749727
10
1224.3512042122868
20
-420.6888370749727
10
1213.836581969904
20
-453.0495168499706
10
1247.8626143039855
20
-453.0495168499706
10
1237.3479920616028
20
-485.4101966249685
10
1203.3219597275213
20
-485.4101966249685
10
1192.8073374851385
20
-517.7708763999664
10
1226.83336981922
20
-517.7708763999664
10
1237.3479920616028
20
-485.4101966249685
10
1271.3740243956843
20
-485.4101966249685
10
1281.888646638067
20
-453.0495168499706
10
1247.8626143039855
20
-453.0495168499706
10
1258.3772365463683
20
-420.6888370749727
10
1224.3512042122868
20
-420.6888370749727
10
1234.8658264546696
20
-388.3281572999748
10
1268.891858788751
20
-388.3281572999748
10
1279.4064810311338
20
-355.9674775249769
10
1245.3804486970523
20
-355.9674775249769
10
1255.895070939435
20
-323.606797749979
10
1221.8690386053536
20
-323.606797749979
10
1232.3836608477363
20
-291.24611797498113
10
1266.4096931818178
20
-291.24611797498113
10
1276.9243154242006
20
-258.88543819998324
10
1242.898283090119
20
-258.88543819998324
10
1253.4129053325019
20
-226.52475842498535
10
1219.3868729984204
20
-226.52475842498535
10
1229.9014952408031
20
-194.16407864998746
10
1263.9275275748846
20
-194.16407864998746
10
1274.4421498172674
20
-161.80339887498957
10
1240.4161174831859
20
-161.80339887498957
10
1250.9307397255686
20
-129.44271909999168
10
1216.9047073914871
20
-129.44271909999168
10
1227.41932963387
20
-97.08203932499379
10
1261.4453619679514
20
-97.08203932499379
10
1271.9599842103341
20
-64.7213595499959
10
1237.9339518762526
20
-64.7213595499959
10
1248.4485741186354
20
-32.360679774998
10
1282.474606452717
20
-32.360679774998
10
1292.9892286950997
20
-9.947598300641403e-14
10
1327.0152610291811
20
-9.947598300641403e-14
10
1316.5006387867984
20
-32.360679774998
10
1282.474606452717
20
-32.360679774998
10
1271.9599842103341
20
-64.7213595499959
10
1305.9860165444156
20
-64.7213595499959
10
1295.4713943020329
20
-97.08203932499379
10
1261.4453619679514
20
-97.08203932499379
10
1250.9307397255686
20
-129.44271909999168
10
1284.9567720596501
20
-129.44271909999168
10
1274.4421498172674
20
-161.80339887498957
10
1308.4681821513489
20
-161.80339887498957
10
1297.953559908966
20
-194.16407864998746
10
1263.9275275748846
20
-194.16407864998746
10
1253.4129053325019
20
-226.52475842498535
10
1287.4389376665833
20
-226.52475842498535
10
1276.9243154242006
20
-258.88543819998324
10
1310.950347758282
20
-258.88543819998324
10
1300.4357255158993
20
-291.24611797498113
10
1266.4096931818178
20
-291.24611797498113
10
1255.895070939435
20
-323.606797749979
10
1289.9211032735166
20
-323.606797749979
10
1279.4064810311338
20
-355.9674775249769
10
1313.4325133652153
20
-355.9674775249769
10
1302.9178911228325
20
-388.3281572999748
10
1268.891858788751
20
-388.3281572999748
10
1258.3772365463683
20
-420.6888370749727
10
1292.4032688804498
20
-420.6888370749727
10
1281.888646638067
20
-453.0495168499706
10
1315.9146789721485
20
-453.0495168499706
10
1305.4000567297658
20
-485.4101966249685
10
1271.3740243956843
20
-485.4101966249685
10
1260.8594021533015
20
-517.7708763999664
10
1294.885434487383
20
-517.7708763999664
10
1305.4000567297658
20
-485.4101966249685
10
1339.4260890638473
20
-485.4101966249685
10
1349.94071130623
20
-453.0495168499706
10
1315.9146789721485
20
-453.0495168499706
10
1326.4293012145313
20
-420.6888370749727
10
1292.4032688804498
20
-420.6888370749727
10
1302.9178911228325
20
-388.3281572999748
10
1336.943923456914
20
-388.3281572999748
10
1347.4585456992968
20
-355.9674775249769
10
1313.4325133652153
20
-355.9674775249769
10
1323.947135607598
20
-323.606797749979
10
1289.9211032735166
20
-323.606797749979
10
1300.4357255158993
20
-291.24611797498113
10
1334.4617578499808
20
-291.24611797498113
10
1344.9763800923636
20
-258.88543819998324
10
1310.950347758282
20
-258.88543819998324
10
1321.4649700006648
20
-226.52475842498535
10
1287.4389376665833
20
-226.52475842498535
10
1297.953559908966
20
-194.16407864998746
10
1331.9795922430476
20
-194.16407864998746
10
1342.4942144854303
20
-161.80339887498957
10
1308.4681821513489
20
-161.80339887498957
10
1318.9828043937316
20
-129.44271909999168
10
1284.9567720596501
20
-129.44271909999168
10
1295.4713943020329
20
-97.08203932499379
10
1329.4974266361144
20
-97.08203932499379
10
1340.0120488784971
20
-64.7213595499959
10
1305.9860165444156
20
-64.7213595499959
10
1316.5006387867984
20
-32.360679774998
10
1350.5266711208799
20
-32.360679774998
10
1361.0412933632626
20
-9.947598300641403e-14
10
1395.0673256973441
20
-9.947598300641403e-14
10
1384.5527034549614
20
-32.360679774998
10
1350.5266711208799
20
-32.360679774998
10
1340.0120488784971
20
-64.7213595499959
10
1374.0380812125786
20
-64.7213595499959
10
1363.5234589701959
20
-97.08203932499379
10
1329.4974266361144
20
-97.08203932499379
10
1318.9828043937316
20
-129.44271909999168
10
1353.008836727813
20
-129.44271909999168
10
1342.4942144854303
20
-161.80339887498957
10
1376.5202468195118
20
-161.80339887498957
10
1366.005624577129
20
-194.16407864998746
10
1331.9795922430476
20
-194.16407864998746
10
1321.4649700006648
20
-226.52475842498535
10
1355.4910023347463
20
-226.52475842498535
10
1344.9763800923636
20
-258.88543819998324
10
1379.002412426445
20
-258.88543819998324
10
1368.4877901840623
20
-291.24611797498113
10
1334.4617578499808
20
-291.24611797498113
10
1323.947135607598
20
-323.606797749979
10
1357.9731679416795
20
-323.606797749979
10
1347.4585456992968
20
-355.9674775249769
10
1381.4845780333783
20
-355.9674775249769
10
1370.9699557909955
20
-388.3281572999748
10
1336.943923456914
20
-388.3281572999748
10
1326.4293012145313
20
-420.6888370749727
10
1360.4553335486128
20
-420.6888370749727
10
1349.94071130623
20
-453.0495168499706
10
1383.9667436403115
20
-453.0495168499706
10
1373.4521213979287
20
-485.4101966249685
10
1339.4260890638473
20
-485.4101966249685
10
1328.9114668214645
20
-517.7708763999664
10
1362.937499155546
20
-517.7708763999664
10
1373.4521213979287
20
-485.4101966249685
10
1407.4781537320102
20
-485.4101966249685
10
1417.992775974393
20
-453.0495168499706
10
1383.9667436403115
20
-453.0495168499706
10
1394.4813658826943
20
-420.6888370749727
10
1360.4553335486128
20
-420.6888370749727
10
1370.9699557909955
20
-388.3281572999748
10
1404.995988125077
20
-388.3281572999748
10
1415.5106103674598
20
-355.9674775249769
10
1381.4845780333783
20
-355.9674775249769
10
1391.999200275761
20
-323.606797749979
10
1357.9731679416795
20
-323.606797749979
10
1368.4877901840623
20
-291.24611797498113
10
1402.5138225181438
20
-291.24611797498113
10
1413.0284447605266
20
-258.88543819998324
10
1379.002412426445
20
-258.88543819998324
10
1389.5170346688278
20
-226.52475842498535
10
1355.4910023347463
20
-226.52475842498535
10
1366.005624577129
20
-194.16407864998746
10
1400.0316569112106
20
-194.16407864998746
10
1410.5462791535933
20
-161.80339887498957
10
1376.5202468195118
20
-161.80339887498957
10
1387.0348690618946
20
-129.44271909999168
10
1353.008836727813
20
-129.44271909999168
10
1363.5234589701959
20
-97.08203932499379
10
1397.5494913042774
20
-97.08203932499379
10
1408.06411354666
20
-64.7213595499959
10
1374.0380812125786
20
-64.7213595499959
10
1384.5527034549614
20
-32.360679774998
10
1418.5787357890429
20
-32.360679774998
10
1429.0933580314256
20
-9.947598300641403e-14
10
1463.1193903655071
20
-9.947598300641403e-14
10
1452.6047681231244
20
-32.360679774998
10
1418.5787357890429
20
-32.360679774998
10
1408.06411354666
20
-64.7213595499959
10
1442.0901458807416
20
-64.7213595499959
10
1431.5755236383588
20
-97.08203932499379
10
1397.5494913042774
20
-97.08203932499379
10
1387.0348690618946
20
-129.44271909999168
10
1421.060901395976
20
-129.44271909999168
10
1410.5462791535933
20
-161.80339887498957
10
1444.5723114876748
20
-161.80339887498957
10
1434.057689245292
20
-194.16407864998746
10
1400.0316569112106
20
-194.16407864998746
10
1389.5170346688278
20
-226.52475842498535
10
1423.5430670029093
20
-226.52475842498535
10
1413.0284447605266
20
-258.88543819998324
10
1447.054477094608
20
-258.88543819998324
10
1436.5398548522253
20
-291.24611797498113
10
1402.5138225181438
20
-291.24611797498113
10
1391.999200275761
20
-323.606797749979
10
1426.0252326098425
20
-323.606797749979
10
1415.5106103674598
20
-355.9674775249769
10
1449.5366427015413
20
-355.9674775249769
10
1439.0220204591585
20
-388.3281572999748
10
1404.995988125077
20
-388.3281572999748
10
1394.4813658826943
20
-420.6888370749727
10
1428.5073982167758
20
-420.6888370749727
10
1417.992775974393
20
-453.0495168499706
10
1452.0188083084745
20
-453.0495168499706
10
1441.5041860660917
20
-485.4101966249685
10
1407.4781537320102
20
-485.4101966249685
10
1396.9635314896275
20
-517.7708763999664
10
1430.989563823709
20
-517.7708763999664
10
1441.5041860660917
20
-485.4101966249685
10
1452.0188083084745
20
-453.0495168499706
10
1417.992775974393
20
-453.0495168499706
10
1428.5073982167758
20
-420.6888370749727
10
1439.0220204591585
20
-388.3281572999748
10
1449.5366427015413
20
-355.9674775249769
10
1415.5106103674598
20
-355.9674775249769
10
1426.0252326098425
20
-323.606797749979
10
1436.5398548522253
20
-291.24611797498113
10
1447.054477094608
20
-258.88543819998324
10
1413.0284447605266
20
-258.88543819998324
10
1423.5430670029093
20
-226.52475842498535
10
1434.057689245292
20
-194.16407864998746
10
1444.5723114876748
20
-161.80339887498957
10
1410.5462791535933
20
-161.80339887498957
10
1421.060901395976
20
-129.44271909999168
10
1431.5755236383588
20
-97.08203932499379
10
1442.0901458807416
20
-64.7213595499959
10
1452.6047681231244
20
-32.360679774998
10
1463.1193903655071
20
-9.947598300641403e-14
10
1429.0933580314256
20
-9.947598300641403e-14
10
1395.0673256973441
20
-9.947598300641403e-14
10
1361.0412933632626
20
-9.947598300641403e-14
10
1327.0152610291811
20
-9.947598300641403e-14
10
1292.9892286950997
20
-9.947598300641403e-14
10
1258.9631963610182
20
-9.947598300641403e-14
10
1224.9371640269367
20
-9.947598300641403e-14
10
1190.9111316928552
20
-9.947598300641403e-14
10
1156.8850993587737
20
-9.947598300641403e-14
10
1122.8590670246922
20
-9.947598300641403e-14
10
1088.8330346906107
20
-9.947598300641403e-14
10
1054.8070023565292
20
-9.947598300641403e-14
10
1020.7809700224476
20
-9.947598300641403e-14
10
986.754937688366
20
-9.947598300641403e-14
10
952.7289053542844
20
-9.947598300641403e-14
10
918.7028730202028
20
-9.947598300641403e-14
10
884.6768406861212
20
-9.947598300641403e-14
10
850.6508083520396
20
-9.947598300641403e-14
10
816.624776017958
20
-9.947598300641403e-14
10
782.5987436838764
20
-9.947598300641403e-14
10
748.5727113497948
20
-9.947598300641403e-14
10
714.5466790157132
20
-9.947598300641403e-14
10
680.5206466816315
20
-9.947598300641403e-14
10
646.4946143475499
20
-9.947598300641403e-14
10
612.4685820134683
20
-9.947598300641403e-14
10
578.4425496793867
20
-9.947598300641403e-14
10
544.4165173453051
20
-9.947598300641403e-14
10
510.3904850112235
20
-9.947598300641403e-14
10
476.3644526771419
20
-9.947598300641403e-14
10
442.3384203430603
20
-9.947598300641403e-14
10
408.3123880089787
20
-9.947598300641403e-14
10
374.2863556748971
20
-9.947598300641403e-14
10
340.2603233408155
20
-9.947598300641403e-14
10
306.2342910067339
20
-9.947598300641403e-14
10
272.2082586726523
20
-9.947598300641403e-14
10
238.18222633857067
20
-9.947598300641403e-14
10
204.15619400448907
20
-9.947598300641403e-14
10
170.13016167040746
20
-9.947598300641403e-14
10
136.10412933632585
20
-9.947598300641403e-14
10
102.07809700224425
20
-9.947598300641403e-14
10
68.05206466816264
20
-9.947598300641403e-14
10
34.026032334081044
20
-9.947598300641403e-14
10
-5.542233338928781e-13
20
-9.947598300641403e-14
10
-10.51462224238323
20
-32.360679774998
10
-21.029244484765904
20
-64.7213595499959
10
-31.54386672714858
20
-97.08203932499379
10
-42.058488969531254
20
-129.44271909999168
10
-8.032456635449655
20
-129.44271909999168
10
-18.54707887783233
20
-161.80339887498957
10
-29.061701120215005
20
-194.16407864998746
10
-39.57632336259768
20
-226.52475842498535
10
-5.550291028516078
20
-226.52475842498535
10
-16.064913270898753
20
-258.88543819998324
10
-26.579535513281428
20
-291.24611797498113
10
-37.0941577556641
20
-323.606797749979
10
-3.0681254215825007
20
-323.606797749979
10
-13.582747663965176
20
-355.9674775249769
10
-24.09736990634785
20
-388.3281572999748
10
-34.61199214873052
20
-420.6888370749727
10
-0.5859598146489233
20
-420.6888370749727
10
-11.100582057031598
20
-453.0495168499706
10
-21.615204299414273
20
-485.4101966249685
10
-32.129826541796945
20
-517.7708763999664
10
1.896205792284654
20
-517.7708763999664
10
35.92223812636625
20
-517.7708763999664
10
69.94827046044784
20
-517.7708763999664
10
103.97430279452945
20
-517.7708763999664
10
138.00033512861106
20
-517.7708763999664
10
172.02636746269266
20
-517.7708763999664
10
206.05239979677427
20
-517.7708763999664
10
240.07843213085587
20
-517.7708763999664
10
274.10446446493745
20
-517.7708763999664
10
308.13049679901906
20
-517.7708763999664
10
342.15652913310066
20
-517.7708763999664
10
376.18256146718227
20
-517.7708763999664
10
410.2085938012639
20
-517.7708763999664
10
444.2346261353455
20
-517.7708763999664
10
478.2606584694271
20
-517.7708763999664
10
512.2866908035087
20
-517.7708763999664
10
546.3127231375903
20
-517.7708763999664
10
580.3387554716719
20
-517.7708763999664
10
614.3647878057535
20
-517.7708763999664
10
648.3908201398351
20
-517.7708763999664
10
682.4168524739167
20
-517.7708763999664
10
716.4428848079983
20
-517.7708763999664
10
750.4689171420799
20
-517.7708763999664
10
784.4949494761615
20
-517.7708763999664
10
818.5209818102431
20
-517.7708763999664
10
852.5470141443247
20
-517.7708763999664
10
886.5730464784064
20
-517.7708763999664
10
920.599078812488
20
-517.7708763999664
10
954.6251111465696
20
-517.7708763999664
10
988.6511434806512
20
-517.7708763999664
10
1022.6771758147328
20
-517.7708763999664
10
1056.7032081488144
20
-517.7708763999664
10
1090.7292404828959
20
-517.7708763999664
10
1124.7552728169774
20
-517.7708763999664
10
1158.7813051510589
20
-517.7708763999664
10
1192.8073374851404
20
-517.7708763999664
10
1226.8333698192218
20
-517.7708763999664
10
1260.8594021533033
20
-517.7708763999664
10
1294.8854344873848
20
-517.7708763999664
10
1328.9114668214663
20
-517.7708763999664
10
1362.9374991555478
20
-517.7708763999664
10
1396.9635314896293
20
-517.7708763999664
0
ENDSEC
0
EOF
